<?xml version="1.0" encoding="UTF-8" standalone="no"?>
<!-- Created with Inkscape (http://www.inkscape.org/) -->

<svg
   xmlns:dc="http://purl.org/dc/elements/1.1/"
   xmlns:cc="http://creativecommons.org/ns#"
   xmlns:rdf="http://www.w3.org/1999/02/22-rdf-syntax-ns#"
   xmlns:svg="http://www.w3.org/2000/svg"
   xmlns="http://www.w3.org/2000/svg"
   xmlns:sodipodi="http://sodipodi.sourceforge.net/DTD/sodipodi-0.dtd"
   xmlns:inkscape="http://www.inkscape.org/namespaces/inkscape"
   id="svg4155"
   version="1.1"
   inkscape:version="0.91 r13725"
   xml:space="preserve"
   width="75.494438mm"
   height="48.330559mm"
   viewBox="0 0 267.49997 171.25001"
   sodipodi:docname="sirene_2017-1006-ATMEGA328p.svg"><metadata
     id="metadata4161"><rdf:RDF><cc:Work
         rdf:about=""><dc:format>image/svg+xml</dc:format><dc:type
           rdf:resource="http://purl.org/dc/dcmitype/StillImage" /><dc:title /></cc:Work></rdf:RDF></metadata><defs
     id="defs4159" /><sodipodi:namedview
     pagecolor="#ffffff"
     bordercolor="#666666"
     borderopacity="1"
     objecttolerance="10"
     gridtolerance="10"
     guidetolerance="10"
     inkscape:pageopacity="0"
     inkscape:pageshadow="2"
     inkscape:window-width="1327"
     inkscape:window-height="744"
     id="namedview4157"
     showgrid="false"
     units="mm"
     inkscape:zoom="2.7195505"
     inkscape:cx="142.87803"
     inkscape:cy="84.568348"
     inkscape:window-x="39"
     inkscape:window-y="24"
     inkscape:window-maximized="1"
     inkscape:current-layer="g4163"
     showguides="false" /><g
     id="g4163"
     inkscape:groupmode="layer"
     inkscape:label="sirene_2017-1006-ATMEGA328p"
     transform="matrix(1.25,0,0,-1.25,0,171.25002)"><path
       style="fill:#008000;fill-opacity:1;fill-rule:evenodd;stroke:none"
       d="m 213.99992,2.599346e-6 0,137.000017400654 -213.99987,0 L 5e-5,2.599346e-6 Z"
       id="path4347" /><path
       style="fill:#ffffff;fill-opacity:1;fill-rule:evenodd;stroke:none"
       d="m 144.48125,135.04377 -0.76407,-0.76563 -4.39374,-4.39374 0,-1.75626 -1.07813,0 0,-10.23437 5.27344,0 -0.59531,-0.56563 0,-3.6 -8.27813,0 0,-10.23437 1.07813,0 0,-8.10625 8.72969,-8.73125 27.49687,0 1.61562,-1.615625 3.65625,0 1.61563,1.615625 9.72344,0 1.81406,-1.785937 3.62813,0 2.57969,2.551562 0,3.65625 -2.57969,2.551562 -3.62813,0 -1.81406,-1.785937 -9.35469,0 -1.98438,1.984375 -3.65625,0 -1.95624,-1.984375 -2.52344,0 0.85156,0.85 0,3.629688 -2.57968,2.578124 -3.65626,0 -1.78594,-1.814062 -1.72968,0 -4.875,4.90469 0,1.50156 8.27656,0 0,2.52344 6.83125,0 0,-4.16719 1.53125,-1.50156 2.21094,0 0,-1.814065 8.7875,0 0,15.987505 -1.78594,0 0,3.11718 -7.96563,7.96563 -13.20937,0 0,0.65156 15.93125,0 7.11407,-7.11406 0,-6.09531 9.89374,-9.89219 7.02969,0 4.73281,-4.762503 0,-34.015625 -2.975,-3.004687 -1.55937,0 -1.81407,1.814063 -3.62812,0 -2.57968,-2.579688 0,-3.628122 2.57968,-2.579688 3.62812,0 1.81407,1.814056 3.68437,0 6.0375,6.009379 0,38.325005 -7.76562,7.79531 -7.03125,0 -6.85938,6.85937 0,1.02032 2.18282,-2.21094 3.65625,0 2.57968,2.57968 0,3.62813 -1.81406,1.81406 0,2.07031 -10.94218,10.94063 -39.40157,0 z m 0.52969,-1.45156 38.15468,-0.025 10.13282,-10.07031 -0.0297,-2.42657 c 1.07394,-0.41276 1.84063,-1.44632 1.84063,-2.66562 0,-1.58118 -1.28288,-2.8625 -2.86407,-2.8625 -1.58119,0 -2.86249,1.28132 -2.86249,2.8625 0,1.20549 0.7468,2.23257 1.80156,2.65469 l -0.005,1.52031 -8.79063,8.73437 -36.37968,0 -3.00782,-3.20625 0.0109,-1.48281 0.22188,0 0.85,-0.85 0,-5.5 -0.85,-0.85 -2.60782,0 -0.85,0.85 0,5.5 0.85,0.85 0.25313,0 0.006,2.71094 4.125,4.25625 z m 32.3,-3.64375 9.30781,-9.21406 0.0547,-6.16094 7.80156,-7.77344 6.96094,0.0219 6.95,-6.887505 -0.0125,-0.0047 0,-36.996874 -0.006,0.0016 -5.14218,-5.2625 -4.06406,0 c -0.43616,-1.024131 -1.45098,-1.742187 -2.63438,-1.742187 -1.58118,0 -2.86406,1.281314 -2.86406,2.862499 0,1.581188 1.28288,2.8625 2.86406,2.8625 1.16815,0 2.16886,-0.701609 2.61406,-1.704687 l 3.325,0 3.64376,3.717187 0,35.4875 -5.50469,5.451567 -7.04687,-0.002 -8.68595,8.70156 -0.38125,0.37344 0.0469,6.05781 -8.03125,8.01406 -26.29219,0.0109 0,-1.1375 0.22032,0 0.85,-0.85 0,-5.5 -0.85,-0.85 -0.20156,0 0.002,-3.27344 -1.08282,-0.98594 -2.56562,0.0172 0,-2.95781 0.24844,0 0.85,-0.85 0,-5.5 -0.85,-0.85 -2.60782,0 -0.85,0.85 0,5.5 0.85,0.85 0.22657,0 -0.002,4.03281 1.02031,1.08907 2.57344,0 0.0234,2.07812 -0.24219,0 -0.85,0.85 0,5.5 0.85,0.85 0.25469,0 -0.002,2.125 1.025,1.17188 28.20625,0.0266 z m -67.86563,-1.82032 0,-10.23437 8.27813,0 0,-4.16563 -11.87813,0 0,-9.29843 -6.63281,0 0,14.11719 -7.907812,7.93593 -19.304688,0 0,1.07813 -10.232813,0 0,-1.07813 -8.617187,0 -4.523438,0.006 -2.732812,0 0,1.58282 -8.7875,0 0,-1.02188 -1.760937,0 0,-0.50938 1.817187,0 0,-5.72656 -1.817187,0 0,-0.50937 1.760937,0 0,-1.02031 8.7875,0 0,1.81406 9.410937,0 2.940626,-0.0344 3.521874,0 0,-0.84531 10.232813,0 0,1.07813 17.15,0 4.875,-4.90469 0,-20.068752 -3.854688,0 0,-10.120313 12.926558,0 0,10.120313 -3.88437,0 0,2.948437 14.91094,0 0,-5.840625 1.52969,-1.529688 3.06249,0 1.02032,-1.020312 0,-7.342188 0.5375,-1.078124 1.67343,-1.303125 13.60626,-10.545313 22.27969,0.02813 0,-2.210938 -21.93907,0 -8.73125,-8.701562 0,-10.120309 -6.0375,-4.365632 -8.84531,0 -3.34375,2.637504 0,12.98125 -3.31719,3.345312 -2.15469,0 0,2.495312 -7.34062,0 0,-2.495312 -6.803128,0 -5.953128,4.678125 -0.170312,3.203125 -0.595312,1.048438 -0.539064,0.340624 -7.907809,5.271876 -10.431249,0 -1.503125,-1.531251 0,-2.409374 -1.814063,-1.814063 0,-2.521875 -6.973437,6.971875 -7.7375,0 -3.940626,3.940625 0,1.5875 1.076563,0 0,10.232812 -7.342188,0 0,-2.521874 -2.125,0 -5.357812,5.356249 0,23.245323 3.485937,0 0,1.02031 1.745313,0 0,0.50937 -1.801562,0 0,5.72656 1.801562,0 0,0.50938 -1.745313,0 0,1.02188 -8.785937,0 0,-8.64688 -7.171875,0 0,2.52344 -7.3421878,0 0,-10.23282 7.3421878,0 0,2.52188 7.284375,0 0,-20.351567 8.390625,-8.390625 4.279687,0 0,-2.523438 1.106251,0 0,-3.742188 6.973437,-6.973437 7.709375,0 3.940625,-3.939063 0,-31.407811 -9.2125,0 0,7.167184 1.859375,0 0,8.907816 -30.659375,0 0,22.929686 -1.501563,1.529688 -2.75,0 0,5.528125 1.076563,0 0,10.232812 -7.3421875,0 0,-10.232812 1.10625,0 0,-9.184375 1.5031255,-1.53125 2.720312,0 0,-35.346874 -1.076563,0 0,-10.232816 50.540626,0 0,10.232816 -1.076563,0 0,18.056248 1.814063,-1.814064 0,-7.823432 1.503125,-1.503128 13.095312,0 0,-6.915624 -8.276563,0 0,-10.232816 1.076563,0 0,-2.154688 3.401563,-3.373432 51.845307,0 12.89844,9.721872 36.70781,0 5.01719,4.960936 0,22.16719 -8.84375,8.873437 3.74219,0 6.63281,-6.634375 0,-25.3125 -4.30781,-4.281248 -19.30468,0 -2.80626,-2.806248 0,-1.728128 -3.88281,0 0,-10.092192 12.925,0 0,9.439064 15.22187,0 7.3422,7.342192 0,29.593747 -9.66564,9.6375 -13.52187,0 0,0.114063 3.34531,3.345312 5.41407,0 1.78593,-1.785937 3.65625,0 2.57969,2.579688 0,3.628125 -2.57969,2.579687 -3.65625,0 -1.78593,-1.814063 -7.56875,0 -4.875,-4.848437 -21.99688,-0.02813 -12.41562,9.609375 0,5.471875 1.81406,1.814063 0,3.628125 -2.57968,2.579687 -3.65626,0 -1.19062,-1.21875 0,5.810935 8.27656,0 0,10.23281 -1.07656,0 0,1.78594 -1.53125,1.52969 -2.06875,0 0,0.85156 8.27656,0 0,10.23281 -21.74219,0 z m 22.62031,-1.02031 0,-3.04375 0.51094,0 0,1.71094 0.85,0.85 0.19375,0 0,0.48281 -1.55469,0 z m 3.68907,0 0,-0.48281 0.27969,0 0.85,-0.85 0,-1.71094 0.4828,0 0,3.04375 -1.61249,0 z m -23.92813,-0.48281 2.60782,0 0.85,-0.85 0,-5.5 -0.85,-0.85 -2.60782,0 -0.85,0.85 0,5.5 0.85,0.85 z m 7.2,0 2.60782,0 0.85,-0.85 0,-5.5 -0.85,-0.85 -0.225,0 0,-3.52344 2.54531,0.003 0.96093,-0.97344 0.005,0 0,-2.70625 0.31407,0 0.85,-0.85 0,-5.5 -0.85,-0.85 -2.60782,0 -0.85,0.85 0,5.5 0.85,0.85 0.1375,0 0,1.54531 -2.46875,0 -1.02344,1.14844 0,0.98125 0.003,0 0,3.525 -0.24844,0 -0.85,0.85 0,5.5 0.85,0.85 z m 7.2,0 2.60782,0 0.85,-0.85 0,-5.5 -0.85,-0.85 -2.60782,0 -0.85,0.85 0,5.5 0.85,0.85 z m 28.8,0 2.60782,0 0.85,-0.85 0,-1.65 14.07187,0 7.0625,-7.06562 -0.003,-4.06876 1.80156,0 0,-5.72656 -5.725,0 0,5.72656 1.77657,0 -0.005,3.09219 -5.82031,5.9 -13.15937,0 0,-1.70781 -0.85,-0.85 -2.60782,0 -0.85,0.85 0,5.5 0.85,0.85 z m -130.790622,-0.0844 5.725,0 0,-5.72656 -3.429688,0 0,-25.448435 6.189063,-6.184375 4.298437,0.01563 0,1.654687 0.85,0.85 2.607812,0 0.851563,-0.85 0,-5.498437 -0.851563,-0.851563 -0.08438,0 0,-3.948437 4.710938,-4.65625 7.039062,0.02031 1.010938,-0.315625 5.332813,-5.357812 0.495312,-1.179688 0.01406,-0.01094 0,-33.646877 0.134374,0 0.85,-0.85 0,-5.5 -0.85,-0.85 -2.607812,0 -0.851562,0.85 0,5.5 0.851562,0.85 0.195312,0 0,33.54219 -4.870312,4.790624 -7.034375,-0.01875 -0.95625,0.346874 -5.389063,5.415626 -0.353125,1.070312 0,3.948437 -0.245312,0 -0.85,0.851563 0,1.664062 -4.90625,0.0047 -0.801562,0.532812 -6.5375,6.545313 -0.540625,0.98125 0,20.724999 -10.203126,0 0,-1.73906 -0.85,-0.85 -2.607812,0 -0.85,0.85 0,5.5 0.85,0.85 2.607812,0 0.85,-0.85 0,-1.65313 10.203126,0 0,4.40625 0.0031,0 0,4.22031 z m 14.4,0 5.726562,0 0,-1.60468 18.90625,0 0,0.24375 0.851563,0.85 5.498437,0 0.85,-0.85 0,-0.24375 20.317186,0 6.906248,-7.07344 0.0375,-14.73281 17.831256,0 0,1.89531 -0.13438,0 -0.85,0.85 0,5.5 0.85,0.85 2.60782,0 0.85,-0.85 0,-5.5 -0.85,-0.85 -0.0797,0 0,-9.492187 1.72187,0 c 0.41282,1.073852 1.44795,1.839062 2.66719,1.839062 1.58119,0 2.8625,-1.281311 2.8625,-2.8625 0,-1.193877 -0.73168,-2.215681 -1.77031,-2.645313 l 0,-7.246875 13.33593,-10.3375 23.20626,0.01719 4.85156,4.885938 7.92969,-0.0094 c 0.42596,1.046569 1.44884,1.785937 2.64844,1.785937 1.58117,0 2.86249,-1.282874 2.86249,-2.864062 0,-1.581187 -1.28132,-2.8625 -2.86249,-2.8625 -1.19615,0 -2.21712,0.734804 -2.64532,1.776562 l -6.975,0.02656 -4.28594,-4.345313 -0.0156,-2.05625 14.43124,-0.09063 8.75782,-8.78125 0.0266,-28.353124 -6.42656,-6.454688 -19.2875,0.0047 -0.73594,-0.687504 0.0297,-1.665624 3.01093,0 0.85,-0.85 0,-5.385936 -0.85,-0.85 -8.22187,0 -0.85,0.85 0,5.385936 0.85,0.85 3.01094,0 -0.075,2.576568 2.06093,1.923432 19.2672,0.05625 5.19062,5.128128 -0.0125,26.603126 -7.52032,7.485937 -14.74843,-0.01094 -0.9,0.928125 0.0172,2.8125 -23.29376,-0.0094 -14.175,11.076562 -0.59062,1.073438 0,7.598438 c -0.7089,0.27812 -1.28206,0.825493 -1.58438,1.521875 l -1.76249,0 0,-0.0016 -1.08594,0 -1.30781,1.3625 0,6.004692 -17.825008,0 0.01406,-5.915629 2.993748,0 0.85,-0.85 0,-5.385938 -0.85,-0.85 -8.220308,0 -0.851568,0.85 0,5.385938 0.851568,0.85 2.92656,0 0.01094,22.357809 -5.687496,5.5 -19.30469,0 0,-0.10624 -0.85,-0.85 -5.498437,0 -0.851563,0.85 0,0.10624 -18.90625,0 0,-1.86406 -5.726562,0 0,5.72656 z M 27.1,124.5844 c -0.50097,0 -0.907813,-0.40685 -0.907813,-0.90782 0,-0.50097 0.406843,-0.90625 0.907813,-0.90625 0.50097,0 0.90625,0.40528 0.90625,0.90625 0,0.50097 -0.40528,0.90782 -0.90625,0.90782 z m 7.2,0 c -0.50097,0 -0.907813,-0.40685 -0.907813,-0.90782 0,-0.50097 0.406843,-0.90625 0.907813,-0.90625 0.50097,0 0.90625,0.40528 0.90625,0.90625 0,0.50097 -0.40528,0.90782 -0.90625,0.90782 z m 7.2,0 c -0.50097,0 -0.907813,-0.40685 -0.907813,-0.90782 0,-0.50097 0.406843,-0.90625 0.907813,-0.90625 0.50097,0 0.90625,0.40528 0.90625,0.90625 0,0.50097 -0.40528,0.90782 -0.90625,0.90782 z m 25.36875,-0.36876 c -0.18786,0 -0.339063,-0.15276 -0.339063,-0.34062 0,-0.18786 0.151203,-0.33906 0.339063,-0.33906 0.18786,0 0.340625,0.1512 0.340625,0.33906 0,0.18786 -0.152765,0.34062 -0.340625,0.34062 z m 46.2625,-0.65156 c -0.29745,0 -0.53907,-0.24161 -0.53907,-0.53906 0,-0.29746 0.24162,-0.53906 0.53907,-0.53906 0.29745,0 0.5375,0.2416 0.5375,0.53906 0,0.29745 -0.24005,0.53906 -0.5375,0.53906 z m 7.2,0 c -0.29745,0 -0.53907,-0.24161 -0.53907,-0.53906 0,-0.29746 0.24162,-0.53906 0.53907,-0.53906 0.29745,0 0.5375,0.2416 0.5375,0.53906 0,0.29745 -0.24005,0.53906 -0.5375,0.53906 z m 7.2,0 c -0.29745,0 -0.53907,-0.24161 -0.53907,-0.53906 0,-0.29746 0.24162,-0.53906 0.53907,-0.53906 0.29745,0 0.5375,0.2416 0.5375,0.53906 0,0.29745 -0.24005,0.53906 -0.5375,0.53906 z m 7.2,0 c -0.29745,0 -0.53907,-0.24161 -0.53907,-0.53906 0,-0.29746 0.24162,-0.53906 0.53907,-0.53906 0.29746,0 0.5375,0.2416 0.5375,0.53906 0,0.29745 -0.24004,0.53906 -0.5375,0.53906 z m 7.2,0 c -0.29746,0 -0.53907,-0.24161 -0.53907,-0.53906 0,-0.29746 0.24161,-0.53906 0.53907,-0.53906 0.29745,0 0.5375,0.2416 0.5375,0.53906 0,0.29745 -0.24005,0.53906 -0.5375,0.53906 z m 7.2,0 c -0.29745,0 -0.53907,-0.24161 -0.53907,-0.53906 0,-0.29746 0.24162,-0.53906 0.53907,-0.53906 0.29745,0 0.5375,0.2416 0.5375,0.53906 0,0.29745 -0.24005,0.53906 -0.5375,0.53906 z m 7.2,0 c -0.29745,0 -0.53907,-0.24161 -0.53907,-0.53906 0,-0.29746 0.24162,-0.53906 0.53907,-0.53906 0.27803,0 0.49786,0.21394 0.52657,0.48437 l 0,0.10938 c -0.0287,0.27042 -0.24854,0.48437 -0.52657,0.48437 z m -24.26563,-1.63437 0,-3.01407 1.55469,0 0,0.50938 -0.19375,0 -0.85,0.85 0,1.65469 -0.51094,0 z m 4.81876,0 0,-1.65469 -0.85,-0.85 -0.27969,0 0,-0.50938 1.61249,0 0,3.01407 -0.4828,0 z m 62.9578,-0.12344 -1.98436,-1.98437 0,-0.25938 0.75936,0 c 0.28876,0.65055 0.81112,1.17218 1.46251,1.45938 l 0,0.78437 -0.23751,0 z m 2.51564,0 0,-0.77031 c 0.66368,-0.28459 1.1964,-0.81407 1.48905,-1.47344 l 0.78595,0 0,0.25938 -1.98438,1.98437 -0.29062,0 z m -42.37032,-1.38906 11.05468,0 0.0859,-0.0844 4.76093,-4.7625 0,-0.39687 -2.15312,0 0,-3.96875 -10.06407,0 0,0.7375 -0.0844,0.0562 0,1.72968 -13.32344,0 1.07812,1.07657 0.0844,0 0,0.0844 0.28438,0.28438 0,2.72031 8.27656,0 0,2.52344 z m 32.25781,-1.10469 c -0.50097,0 -0.90625,-0.40684 -0.90625,-0.90781 0,-0.50097 0.40528,-0.90781 0.90625,-0.90781 0.50097,0 0.90782,0.40684 0.90782,0.90781 0,0.50097 -0.40685,0.90781 -0.90782,0.90781 z m 8.98594,0 c -0.50097,0 -0.90625,-0.40684 -0.90625,-0.90781 0,-0.50097 0.40528,-0.90781 0.90625,-0.90781 0.50097,0 0.90781,0.40684 0.90781,0.90781 0,0.50097 -0.40684,0.90781 -0.90781,0.90781 z M 11.876562,117.35627 c -0.297449,0 -0.5375,-0.24161 -0.5375,-0.53906 0,-0.29745 0.240051,-0.53907 0.5375,-0.53907 0.297451,0 0.539063,0.24162 0.539063,0.53907 0,0.29745 -0.241612,0.53906 -0.539063,0.53906 z m 185.981258,-0.0719 0,-0.26876 1.98436,-1.98437 0.23751,0 0,0.75625 c -0.66451,0.29297 -1.19796,0.82804 -1.48282,1.49688 l -0.73905,0 z m 6.00936,0 c -0.28861,-0.67772 -0.83251,-1.2207 -1.50936,-1.51094 l 0,-0.74219 0.29062,0 1.98438,1.98437 0,0.26876 -0.76564,0 z m -75.40156,-4.57657 0,-2.90156 0.51094,0 0,1.56875 0.85,0.85 0.20782,0 0,0.48281 -1.56876,0 z m 3.70313,0 0,-0.48281 0.26563,0 0.85,-0.85 0,-1.56875 0.4828,0 0,2.90156 -1.59843,0 z m -23.94219,-0.48281 2.60782,0 0.85,-0.85 0,-5.5 -0.85,-0.85 -2.60782,0 -0.85,0.85 0,5.5 0.85,0.85 z m 28.8,0 2.60782,0 0.85,-0.85 0,-5.5 -0.85,-0.85 -0.25156,0 0,-8.159375 6.725,-6.525 26.59843,0 c 0.38089,1.133923 1.43931,1.95625 2.70157,1.95625 1.26224,0 2.32065,-0.822327 2.70156,-1.95625 l 11.43906,0 c 0.43246,1.032373 1.45126,1.757813 2.64062,1.757813 1.58118,0 2.8625,-1.281312 2.8625,-2.8625 0,-1.581188 -1.28132,-2.8625 -2.8625,-2.8625 -1.21748,0 -2.25004,0.762975 -2.66406,1.834375 l -11.54062,0 c -0.46049,-0.964631 -1.4364,-1.635938 -2.57656,-1.635938 -1.14018,0 -2.11608,0.671307 -2.57657,1.635938 l -26.925,0 -0.20312,-0.0016 -1.08907,0.434375 -7.0125,7 -0.35312,0.934375 0,8.449997 -0.22188,0 -0.85,0.85 0,5.5 0.85,0.85 z m 14.4,0 2.60782,0 0.85,-0.85 0,-5.5 -0.85,-0.85 -0.22969,0 0,-3.6375 5.77969,-5.760938 3.32187,0 c 0.4354,1.025847 1.45285,1.745313 2.6375,1.745313 1.58118,0 2.8625,-1.281311 2.8625,-2.8625 0,-1.581188 -1.28132,-2.864062 -2.8625,-2.864062 -1.18937,0 -2.20972,0.725436 -2.64219,1.757812 l -4.29531,0 -6.9625,7.084375 0.0328,4.5375 -0.25,0 -0.85,0.85 0,5.5 0.85,0.85 z m 7.2,0 2.60782,0 0.85,-0.85 0,-1.63125 10.64375,0 0,-0.0328 1.44531,-1.19219 0,-4.44375 1.51874,0 0,1.71562 5.725,0 0,-5.72656 -5.725,0 0,1.7875 -1.51874,0 -2.22344,0 0,5.66875 -9.86562,0 0,-1.64531 -0.85,-0.85 -2.60782,0 -0.85,0.85 0,5.5 0.85,0.85 z m -95.867185,-0.0844 0,-1.59218 0.509375,0 0,0.23125 0.851563,0.85 1.785937,0 0,0.51093 -3.146875,0 z m 5.173438,0 0,-0.51093 1.685937,0 0.85,-0.85 0,-0.23125 0.510937,0 0,1.59218 -3.046874,0 z M 178.55469,111.0344 c -0.50097,0 -0.90782,-0.40528 -0.90782,-0.90626 0,-0.50096 0.40685,-0.90781 0.90782,-0.90781 0.50097,0 0.90625,0.40685 0.90625,0.90781 0,0.50098 -0.40528,0.90626 -0.90625,0.90626 z M 66.86875,109.81564 c -0.18786,0 -0.339063,-0.15276 -0.339063,-0.34062 0,-0.18787 0.151203,-0.33906 0.339063,-0.33906 0.18786,0 0.340625,0.15119 0.340625,0.33906 0,0.18786 -0.152765,0.34062 -0.340625,0.34062 z m 42.6625,-0.65156 c -0.29745,0 -0.53907,-0.24161 -0.53907,-0.53906 0,-0.29745 0.24162,-0.53906 0.53907,-0.53906 0.29745,0 0.5375,0.24161 0.5375,0.53906 0,0.29745 -0.24005,0.53906 -0.5375,0.53906 z m 7.2,0 c -0.29745,0 -0.53907,-0.24161 -0.53907,-0.53906 0,-0.29745 0.24162,-0.53906 0.53907,-0.53906 0.29745,0 0.5375,0.24161 0.5375,0.53906 0,0.29745 -0.24005,0.53906 -0.5375,0.53906 z m 7.2,0 c -0.29745,0 -0.53907,-0.24161 -0.53907,-0.53906 0,-0.29745 0.24162,-0.53906 0.53907,-0.53906 0.29745,0 0.5375,0.24161 0.5375,0.53906 0,0.29745 -0.24005,0.53906 -0.5375,0.53906 z m 7.2,0 c -0.29745,0 -0.53907,-0.24161 -0.53907,-0.53906 0,-0.29745 0.24162,-0.53906 0.53907,-0.53906 0.29745,0 0.5375,0.24161 0.5375,0.53906 0,0.29745 -0.24005,0.53906 -0.5375,0.53906 z m 7.2,0 c -0.29745,0 -0.53907,-0.24161 -0.53907,-0.53906 0,-0.29745 0.24162,-0.53906 0.53907,-0.53906 0.29746,0 0.5375,0.24161 0.5375,0.53906 0,0.29745 -0.24004,0.53906 -0.5375,0.53906 z m 7.2,0 c -0.29746,0 -0.53907,-0.24161 -0.53907,-0.53906 0,-0.29745 0.24161,-0.53906 0.53907,-0.53906 0.29745,0 0.5375,0.24161 0.5375,0.53906 0,0.29745 -0.24005,0.53906 -0.5375,0.53906 z m 7.2,0 c -0.29745,0 -0.53907,-0.24161 -0.53907,-0.53906 0,-0.29745 0.24162,-0.53906 0.53907,-0.53906 0.29745,0 0.5375,0.24161 0.5375,0.53906 0,0.29745 -0.24005,0.53906 -0.5375,0.53906 z m 7.2,0 c -0.29745,0 -0.53907,-0.24161 -0.53907,-0.53906 0,-0.29745 0.24162,-0.53906 0.53907,-0.53906 0.29745,0 0.5375,0.24161 0.5375,0.53906 0,0.29745 -0.24005,0.53906 -0.5375,0.53906 z m -97.171875,-0.89375 0,-1.45937 3.146875,0 0,0.51094 -1.785937,0 -0.851563,0.85 0,0.0984 -0.509375,0 z m 7.709375,0 0,-0.0984 -0.85,-0.85 -1.685937,0 0,-0.51094 3.046874,0 0,1.45937 -0.510937,0 z m 57.99687,-0.59843 0,-3.15626 1.56876,0 0,0.50938 -0.20782,0 -0.85,0.85 0,1.79688 -0.51094,0 z m 4.81876,0 0,-1.79688 -0.85,-0.85 -0.26563,0 0,-0.50938 1.59843,0 0,3.15626 -0.4828,0 z M 9.2125,106.52814 l 0,-3.37343 0.510938,0 0,2.0125 0.85,0.85 0.25,0 0,0.51093 -1.610938,0 z m 3.814062,0 0,-0.51093 0.154688,0 0.85,-0.85 0,-2.0125 0.510937,0 0,3.37343 -1.515625,0 z M 178.55469,103.8344 c -0.50097,0 -0.90782,-0.4053 -0.90782,-0.90626 0,-0.50096 0.40685,-0.90781 0.90782,-0.90781 0.50097,0 0.90625,0.40685 0.90625,0.90781 0,0.50096 -0.40528,0.90626 -0.90625,0.90626 z M 11.876562,102.95627 c -0.297449,0 -0.5375,-0.24161 -0.5375,-0.53906 0,-0.29745 0.240051,-0.53907 0.5375,-0.53907 0.297451,0 0.539063,0.24162 0.539063,0.53907 0,0.29745 -0.241612,0.53906 -0.539063,0.53906 z m -2.664062,-1.29063 0,-3.329682 1.610938,0 0,0.481249 -0.25,0 -0.85,0.85 0,1.998433 -0.510938,0 z m 4.81875,0 0,-1.998433 -0.85,-0.85 -0.154688,0 0,-0.481249 1.515625,0 0,3.329682 -0.510937,0 z m 108.3125,-6.249995 c -0.50097,0 -0.90781,-0.40528 -0.90781,-0.90625 0,-0.500969 0.40684,-0.907813 0.90781,-0.907813 0.50097,0 0.90625,0.406844 0.90625,0.907813 0,0.50097 -0.40528,0.90625 -0.90625,0.90625 z m 43.2,0 c -0.46828,0 -0.84077,-0.358599 -0.88906,-0.814063 l 0,-0.184375 c 0.0483,-0.455461 0.42078,-0.815625 0.88906,-0.815625 0.50097,0 0.90625,0.406844 0.90625,0.907813 0,0.50097 -0.40528,0.90625 -0.90625,0.90625 z m 34.24219,-2.778125 -1.98438,-1.984375 0,-0.282812 0.775,0 c 0.29066,0.671866 0.82973,1.210658 1.50313,1.498437 l 0,0.76875 -0.29375,0 z m 2.57188,0 0,-0.785938 c 0.65808,-0.291104 1.18596,-0.82036 1.47187,-1.481249 l 0.74687,0 0,0.282812 -1.98438,1.984375 -0.23436,0 z M 9.070313,91.701582 l 2.607812,0 0.851562,-0.85 0,-5.498437 -0.851562,-0.851563 -0.234375,0 0,-8.459375 2.929688,0 1.321875,-1.218749 0,-0.292188 0.0062,0 0,-39.125002 0.229688,0 0.85,-0.85 0,-5.5 -0.85,-0.85 -2.607812,0 -0.851563,0.85 0,5.5 0.851563,0.85 0.1,0 0,38.357814 -3.026563,0 -1.23125,1.148438 0,0.07344 0,9.515624 -0.09531,0 -0.8500002,0.851563 0,5.498437 0.8500002,0.85 z m 87.562503,-0.08438 c -0.187872,0 -0.339064,-0.152761 -0.339064,-0.340625 0,-0.187863 0.151192,-0.339062 0.339064,-0.339062 0.187856,0 0.340624,0.151199 0.340624,0.339062 0,0.187864 -0.152768,0.340625 -0.340624,0.340625 z m 78.775004,-1.275 c -0.50099,0 -0.90626,-0.406842 -0.90626,-0.907812 0,-0.50097 0.40527,-0.90625 0.90626,-0.90625 0.50096,0 0.9078,0.40528 0.9078,0.90625 0,0.50097 -0.40684,0.907812 -0.9078,0.907812 z m 16.78124,-0.198437 c -0.50096,0 -0.90781,-0.406844 -0.90781,-0.907812 0,-0.500972 0.40685,-0.906251 0.90781,-0.906251 0.50097,0 0.90781,0.405279 0.90781,0.906251 0,0.500968 -0.40684,0.907812 -0.90781,0.907812 z m 9.01407,0 c -0.50099,0 -0.90626,-0.406844 -0.90626,-0.907812 0,-0.500972 0.40527,-0.906251 0.90626,-0.906251 0.50097,0 0.90781,0.405279 0.90781,0.906251 0,0.500968 -0.40684,0.907812 -0.90781,0.907812 z M 10.375,88.640645 c -0.29745,0 -0.539062,-0.241611 -0.539062,-0.539063 0,-0.297448 0.241612,-0.5375 0.539062,-0.5375 0.29746,0 0.539062,0.240052 0.539062,0.5375 0,0.297452 -0.241602,0.539063 -0.539062,0.539063 z m 28.8,0 c -0.29745,0 -0.539062,-0.241611 -0.539062,-0.539063 0,-0.297448 0.241612,-0.5375 0.539062,-0.5375 0.29745,0 0.539062,0.240052 0.539062,0.5375 0,0.297452 -0.241612,0.539063 -0.539062,0.539063 z m 158.62656,-0.548438 0,-0.245312 1.98438,-1.984375 0.29375,0 0,0.740625 c -0.67015,0.286387 -1.20679,0.821725 -1.49844,1.489062 l -0.77969,0 z m 6.02344,0 c -0.28688,-0.656396 -0.8123,-1.182205 -1.46718,-1.471874 l 0,-0.757813 0.23436,0 1.98438,1.984375 0,0.245312 -0.75156,0 z m -112.662504,-7.190625 0,-2.760937 0.509376,0 0,1.429688 0.851568,0.85 3.075,0 0,0.481249 -4.435944,0 z m 6.715632,0 0,-0.481249 2.865622,0 0.85,-0.85 0,-1.429688 0.51094,0 0,2.760937 -4.226562,0 z m 77.529692,-1.898437 c -0.50099,0 -0.90626,-0.406843 -0.90626,-0.907812 0,-0.500971 0.40527,-0.906251 0.90626,-0.906251 0.50096,0 0.9078,0.40528 0.9078,0.906251 0,0.500969 -0.40684,0.907812 -0.9078,0.907812 z m -101.850007,-1.7125 7.675003,-5.090625 0.55156,-1.009375 0.187496,-3.014063 6.72344,-5.498437 8.957816,-0.03125 0,1.701563 0.851562,0.85 2.60781,0 0.85,-0.85 0,-1.720313 2.90625,0.08437 2.5375,-2.554687 -0.005,-13.042189 4.35469,-3.42812 9.77969,0.0375 7.20937,5.093752 -0.003,10.321873 7.79064,7.879688 31.87656,-0.02031 9.71875,-9.542187 -0.0797,-20.882813 -4.15469,-4.162504 -36.73437,-0.04531 -12.91251,-9.725 -50.576557,0.02813 -2.553126,2.528128 0,3.007808 -0.193749,0 -0.851563,0.85 0,5.5 0.851563,0.85 2.607812,0 0.85,-0.85 0,-5.5 -0.85,-0.85 -0.135937,0 0,-3.35156 50.239067,-0.03282 13.01093,9.69688 36.30313,-0.04531 2.85,2.831248 -0.003,19.204688 -8.23281,8.274999 -30.04375,0 -6.63281,-6.539062 -0.0531,-10.570313 -8.53907,-6.064064 -11.22031,-0.02969 -5.78282,4.520312 0.0641,13.337502 -1.16094,1.114063 -2.23125,-0.02031 0,-1.684375 -0.85,-0.85 -2.60781,0 -0.851562,0.85 0,1.640624 -9.590632,0.0094 -7.85312,6.154687 -0.478126,0.75 -0.198437,3.332813 -6.5875,4.340624 -7.081251,0 0,-1.243749 c 1.053071,-0.422906 1.798438,-1.44884 1.798438,-2.653126 0,-1.581185 -1.28132,-2.8625 -2.8625,-2.8625 -1.58119,0 -2.8625,1.281315 -2.8625,2.8625 0,1.195612 0.73397,2.216787 1.775,2.645313 l 0,2.301562 0.776562,1.118751 9.068751,0.04531 z m 23.075003,-0.07344 c -0.187872,0 -0.339064,-0.152761 -0.339064,-0.340625 0,-0.187863 0.151192,-0.339062 0.339064,-0.339062 0.187856,0 0.340624,0.151199 0.340624,0.339062 0,0.187864 -0.152768,0.340625 -0.340624,0.340625 z m -5.47032,-1.356249 0,-3.0375 4.435944,0 0,0.510937 -3.075,0 -0.851568,0.85 0,1.676563 -0.509376,0 z m 10.431254,0 0,-1.676563 -0.85,-0.85 -2.865622,0 0,-0.510937 4.226562,0 0,3.0375 -0.51094,0 z m -32.967188,-2.3 3.940625,0 5.556251,-3.684376 0.170312,-3.004687 0.509375,-0.992188 8.731251,-6.860937 8.589064,0 0,-2.521878 7.34062,0 0,2.521878 0.28438,-0.282812 0,-12.700002 0.5375,-1.07656 0.45468,-0.368752 4.10938,-3.231248 -18.934376,0 -4.479688,-4.45 -3.429688,0 0,10.8 14.059376,0 0,-2.607816 7.342196,0 0,10.232816 -7.342196,0 0,-2.437504 -17.715624,0 -1.53125,-1.531248 0,-2.353128 -9.410937,0 0,4.139064 1.785937,1.814064 0,3.628126 -2.579688,2.579688 -3.628124,0 -2.579688,-2.579688 0,10.771875 2.579688,-2.579687 3.628124,0 2.579688,2.579687 0,3.628125 -0.567188,0.567188 z m -4.4625,-1.7375 C 63.997562,71.659 63.89375,71.43222 63.89375,71.179705 c 0,-0.500969 0.40528,-0.907812 0.90625,-0.907812 0.50097,0 0.907813,0.406843 0.907813,0.907812 0,0.252508 -0.103823,0.479295 -0.270313,0.643751 l -1.273438,0 z m 47.379688,-6.114063 0,-2.901562 0.50938,0 0,1.540625 0.85156,0.85 0.14844,0 0,0.510937 -1.50938,0 z m 3.7875,0 0,-0.510937 0.18125,0 0.85,-0.85 0,-1.540625 0.50937,0 0,2.901562 -1.54062,0 z m 23.05625,-2.439062 12.30156,0 0,-0.906251 -1.75624,-1.757812 0,-3.628122 1.75624,-1.757816 0,-11.339064 -2.52188,-2.15312 -23.01718,0 7.53906,5.414056 0,10.431254 5.69844,5.696875 z m 16.97968,-0.310938 11.82032,0 7.14375,-7.115623 0,-4.989064 -10.54531,10.517187 -6.83125,0 -1.58751,1.5875 z M 99.80782,62.13752 c -0.29748,0 -0.53907,-0.241611 -0.53907,-0.539062 0,-0.297452 0.24159,-0.539063 0.53907,-0.539063 0.29743,0 0.53905,0.241611 0.53905,0.539063 0,0.297451 -0.24162,0.539062 -0.53905,0.539062 z m 14.4,0 c -0.29747,0 -0.53907,-0.241611 -0.53907,-0.539062 0,-0.297452 0.2416,-0.539063 0.53907,-0.539063 0.29744,0 0.53905,0.241611 0.53905,0.539063 0,0.297451 -0.24161,0.539062 -0.53905,0.539062 z m 39.11718,-0.482813 0.002,0 c 1.14774,-6.23e-4 2.12999,-0.680769 2.58594,-1.656249 l 7.38125,0 9.96094,-10.21719 0.006,-1.646872 0.19062,0 0.85157,-0.85156 0,-5.49844 -0.85157,-0.85 -2.60781,0 -0.85,0.85 0,5.49844 0.85,0.85156 0.22031,0 -0.0203,0.767184 -8.83906,8.81719 -6.22813,0 c -0.28846,-0.711204 -0.85174,-1.27951 -1.56094,-1.571878 l -0.025,-14.192184 -4.23906,-4.321872 -58.782808,0.05625 -2.817192,-2.903128 0.229688,-0.229688 0,-5.5 -0.85,-0.85 -2.607808,0 -0.851568,0.85 0,5.5 0.851568,0.85 0.575,0 4.735936,4.485936 58.614064,-0.07031 2.95312,2.94844 0.0141,13.382816 c -1.02996,0.433552 -1.75312,1.451435 -1.75312,2.639059 0,1.580659 1.28205,2.861643 2.8625,2.8625 z m -41.78125,-1.125 0,-3.042187 1.50938,0 0,0.510938 -0.14844,0 -0.85156,0.85 0,1.681249 -0.50938,0 z m 4.81875,0 0,-1.681249 -0.85,-0.85 -0.18125,0 0,-0.510938 1.54062,0 0,3.042187 -0.50937,0 z m 36.96406,-0.831249 c -0.50097,0 -0.90781,-0.40528 -0.90781,-0.906251 0,-0.500969 0.40684,-0.907812 0.90781,-0.907812 0.50098,0 0.90626,0.406843 0.90626,0.907812 0,0.500971 -0.40528,0.906251 -0.90626,0.906251 z m 43.2,0 c -0.50097,0 -0.90781,-0.40528 -0.90781,-0.906251 0,-0.500969 0.40684,-0.907812 0.90781,-0.907812 0.50098,0 0.90626,0.406843 0.90626,0.907812 0,0.500971 -0.40528,0.906251 -0.90626,0.906251 z M 64.8,59.642207 c 1.58118,0 2.8625,-1.281313 2.8625,-2.862499 0,-1.17516 -0.709135,-2.182328 -1.721875,-2.62344 l 0,-6.645312 12.410937,-0.05625 -0.01875,3.09844 0.818749,0.793744 18.41719,0.02969 0,1.604688 0.849999,0.85 2.60781,0 0.85,-0.85 0,-5.5 -0.85,-0.85 -2.60781,0 -0.849999,0.85 0,1.72188 -17.078128,-0.0125 0.0062,-13.784376 0.234376,0 0.85,-0.85 0,-5.5 -0.85,-0.85 -2.60781,0 -0.851563,0.85 0,5.5 0.851563,0.85 0.203124,0 -0.0031,9.859376 -13.940625,0.07969 -0.721875,0.671872 0,8.139064 c -1.013391,0.44084 -1.723438,1.447816 -1.723438,2.62344 0,1.581186 1.28131,2.862499 2.8625,2.862499 z m 0,-1.956249 c -0.50097,0 -0.90625,-0.40528 -0.90625,-0.90625 0,-0.500968 0.40528,-0.907816 0.90625,-0.907816 0.50097,0 0.907813,0.406848 0.907813,0.907816 0,0.50097 -0.406843,0.90625 -0.907813,0.90625 z m 92.07031,-1.55781 4.84687,0 6.775,-6.74688 0,-9.95 5.61251,0 0,-0.935936 -2.52344,-2.153128 -20.69219,0 2.29532,2.29532 2.55156,2.381248 0.19531,0.2 0.003,0.168752 0,13.77656 0.93593,0.964064 z m -45.41249,-1.785944 0,-2.929688 0.51093,0 0,1.568752 0.85,0.85 0.23438,0 0,0.510936 -1.59531,0 z m 3.87343,0 0,-0.510936 0.0953,0 0.85,-0.85 0,-1.568752 0.51094,0 0,2.929688 -1.45625,0 z m -96.367188,-2.948432 5.725,0 0,-5.726568 -1.771875,0 0,-10.260936 0.214063,0 0.85,-0.85 0,-5.5 -0.85,-0.85 -2.607812,0 -0.851563,0.85 0,5.5 0.851563,0.85 0.115624,0 0,10.260936 -1.675,0 0,5.726568 z m 7.2,0 5.725,0 0,-5.726568 -1.754687,0 0,-10.260936 0.196875,0 0.85,-0.85 0,-5.5 -0.85,-0.85 -2.607812,0 -0.851563,0.85 0,5.5 0.851563,0.85 0.131249,0 0,10.260936 -1.690625,0 0,5.726568 z m 7.2,0 5.725,0 0,-5.726568 -1.739062,0 0,-10.260936 0.18125,0 0.85,-0.85 0,-5.5 -0.85,-0.85 -2.607812,0 -0.851563,0.85 0,5.5 0.851563,0.85 0.146875,0 0,10.260936 -1.706251,0 0,5.726568 z m 7.2,0 5.725,0 0,-5.726568 -1.723437,0 0,-10.260936 0.165625,0 0.85,-0.85 0,-5.5 -0.85,-0.85 -2.607812,0 -0.851563,0.85 0,5.5 0.851563,0.85 0.164062,0 0,10.260936 -1.723438,0 0,5.726568 z m 59.159378,-0.62344 c -0.29746,0 -0.53906,-0.241608 -0.53906,-0.539064 0,-0.297448 0.2416,-0.539064 0.53906,-0.539064 0.29745,0 0.5375,0.241616 0.5375,0.539064 0,0.297456 -0.24005,0.539064 -0.5375,0.539064 z m 14.4,0 c -0.29746,0 -0.53906,-0.241608 -0.53906,-0.539064 0,-0.297448 0.2416,-0.539064 0.53906,-0.539064 0.29745,0 0.5375,0.241616 0.5375,0.539064 0,0.297456 -0.24005,0.539064 -0.5375,0.539064 z M 21.826562,49.437524 c -0.500969,0 -0.906249,-0.40528 -0.906249,-0.906256 0,-0.500968 0.40528,-0.907808 0.906249,-0.907808 0.500971,0 0.907813,0.40684 0.907813,0.907808 0,0.500968 -0.406842,0.906256 -0.907813,0.906256 z m 7.2,0 c -0.500969,0 -0.906249,-0.40528 -0.906249,-0.906256 0,-0.500968 0.40528,-0.907808 0.906249,-0.907808 0.50096,0 0.907813,0.40684 0.907813,0.907808 0,0.500968 -0.406853,0.906256 -0.907813,0.906256 z m 7.2,0 c -0.500969,0 -0.906249,-0.40528 -0.906249,-0.906256 0,-0.500968 0.40528,-0.907808 0.906249,-0.907808 0.500971,0 0.907813,0.40684 0.907813,0.907808 0,0.500968 -0.406842,0.906256 -0.907813,0.906256 z m 7.2,0 c -0.500969,0 -0.906249,-0.40528 -0.906249,-0.906256 0,-0.500968 0.40528,-0.907808 0.906249,-0.907808 0.500971,0 0.907813,0.40684 0.907813,0.907808 0,0.500968 -0.406842,0.906256 -0.907813,0.906256 z m 68.031258,-0.303128 0,-3.012504 1.59531,0 0,0.509376 -0.23438,0 -0.85,0.85 0,1.653128 -0.51093,0 z m 4.81874,0 0,-1.653128 -0.85,-0.85 -0.0953,0 0,-0.509376 1.45625,0 0,3.012504 -0.51094,0 z m 82.00626,-0.490624 0,-2.926568 0.51093,0 0,1.565632 0.85,0.85156 0.20625,0 0,0.509376 -1.56718,0 z m 3.84531,0 0,-0.509376 0.12343,0 0.85157,-0.85156 0,-1.565632 0.50937,0 0,2.926568 -1.48437,0 z m -29.97969,-3.57188 c -0.29746,0 -0.53906,-0.240048 -0.53906,-0.537496 0,-0.297448 0.2416,-0.539064 0.53906,-0.539064 0.29745,0 0.5375,0.241616 0.5375,0.539064 0,0.297448 -0.24005,0.537496 -0.5375,0.537496 z m 28.8,0 c -0.29746,0 -0.53906,-0.240048 -0.53906,-0.537496 0,-0.297448 0.2416,-0.539064 0.53906,-0.539064 0.29746,0 0.5375,0.241616 0.5375,0.539064 0,0.297448 -0.24004,0.537496 -0.5375,0.537496 z M 17.20625,44.07658 l 2.0125,0 0,-7.167184 -2.0125,0 0,7.167184 z m 181.07657,-0.637496 0,-3.015624 1.56718,0 0,0.510936 -0.20625,0 -0.85,0.85 0,1.654688 -0.51093,0 z m 4.82031,0 0,-1.654688 -0.85157,-0.85 -0.12343,0 0,-0.510936 1.48437,0 0,3.015624 -0.50937,0 z m -91.22031,-7.267192 24.35312,0 -0.13281,-0.09062 -0.0703,-0.05156 -10.9422,-8.220312 -2.01249,-1.50156 -11.19844,0 0,0.165624 0.003,0.20156 0,9.496872 z m -49.52032,-0.284368 0,-2.857816 0.509375,0 0,1.52656 0.851563,0.85 0.210937,0 0,0.481256 -1.571875,0 z m 3.85,0 0,-0.481256 0.11875,0 0.85,-0.85 0,-1.52656 0.509375,0 0,2.857816 -1.478125,0 z m -16.889062,-0.481256 2.607812,0 0.85,-0.85 0,-5.5 -0.85,-0.85 -2.607812,0 -0.851563,0.85 0,5.5 0.851563,0.85 z m 43.200002,0 2.607808,0 0.85,-0.85 0,-5.5 -0.85,-0.85 -2.607808,0 -0.851568,0.85 0,5.5 0.851568,0.85 z m 7.2,0 2.60781,0 0.85,-0.85 0,-5.5 -0.85,-0.85 -2.60781,0 -0.85157,0.85 0,5.5 0.85157,0.85 z m 7.2,0 2.60781,0 0.85,-0.85 0,-5.5 -0.85,-0.85 -2.60781,0 -0.85157,0.85 0,5.5 0.85157,0.85 z M 14.626562,32.345332 c -0.297449,0 -0.539062,-0.241608 -0.539062,-0.539064 0,-0.297448 0.241613,-0.539064 0.539062,-0.539064 0.297451,0 0.539063,0.241616 0.539063,0.539064 0,0.297456 -0.241612,0.539064 -0.539063,0.539064 z m 7.2,0 c -0.297449,0 -0.539062,-0.241608 -0.539062,-0.539064 0,-0.297448 0.241613,-0.539064 0.539062,-0.539064 0.29746,0 0.539063,0.241616 0.539063,0.539064 0,0.297456 -0.241603,0.539064 -0.539063,0.539064 z m 7.2,0 c -0.29746,0 -0.539062,-0.241608 -0.539062,-0.539064 0,-0.297448 0.241602,-0.539064 0.539062,-0.539064 0.297451,0 0.539063,0.241616 0.539063,0.539064 0,0.297456 -0.241612,0.539064 -0.539063,0.539064 z m 7.2,0 c -0.297449,0 -0.539062,-0.241608 -0.539062,-0.539064 0,-0.297448 0.241613,-0.539064 0.539062,-0.539064 0.297451,0 0.539063,0.241616 0.539063,0.539064 0,0.297456 -0.241612,0.539064 -0.539063,0.539064 z m 7.2,0 c -0.297449,0 -0.539062,-0.241608 -0.539062,-0.539064 0,-0.297448 0.241613,-0.539064 0.539062,-0.539064 0.297451,0 0.539063,0.241616 0.539063,0.539064 0,0.297456 -0.241612,0.539064 -0.539063,0.539064 z m 7.2,0 c -0.297449,0 -0.539062,-0.241608 -0.539062,-0.539064 0,-0.297448 0.241613,-0.539064 0.539062,-0.539064 0.297451,0 0.539063,0.241616 0.539063,0.539064 0,0.297456 -0.241612,0.539064 -0.539063,0.539064 z m 7.2,0 c -0.297449,0 -0.539062,-0.241608 -0.539062,-0.539064 0,-0.297448 0.241613,-0.539064 0.539062,-0.539064 0.297451,0 0.539063,0.241616 0.539063,0.539064 0,0.297456 -0.241612,0.539064 -0.539063,0.539064 z m 7.2,0 c -0.297449,0 -0.539062,-0.241608 -0.539062,-0.539064 0,-0.297448 0.241613,-0.539064 0.539062,-0.539064 0.297451,0 0.539063,0.241616 0.539063,0.539064 0,0.297456 -0.241612,0.539064 -0.539063,0.539064 z m 7.2,0 c -0.297449,0 -0.539062,-0.241608 -0.539062,-0.539064 0,-0.297448 0.241613,-0.539064 0.539062,-0.539064 0.297451,0 0.539063,0.241616 0.539063,0.539064 0,0.297456 -0.241612,0.539064 -0.539063,0.539064 z m 7.2,0 c -0.297449,0 -0.539062,-0.241608 -0.539062,-0.539064 0,-0.297448 0.241613,-0.539064 0.539062,-0.539064 0.297451,0 0.539063,0.241616 0.539063,0.539064 0,0.297456 -0.241612,0.539064 -0.539063,0.539064 z m 7.199998,0 c -0.297448,0 -0.539056,-0.241608 -0.539056,-0.539064 0,-0.297448 0.241608,-0.539064 0.539056,-0.539064 0.297464,0 0.539064,0.241616 0.539064,0.539064 0,0.297456 -0.2416,0.539064 -0.539064,0.539064 z m 7.2,0 c -0.297448,0 -0.539056,-0.241608 -0.539056,-0.539064 0,-0.297448 0.241608,-0.539064 0.539056,-0.539064 0.297464,0 0.539064,0.241616 0.539064,0.539064 0,0.297456 -0.2416,0.539064 -0.539064,0.539064 z m 7.2,0 c -0.29745,0 -0.53906,-0.241608 -0.53906,-0.539064 0,-0.297448 0.24161,-0.539064 0.53906,-0.539064 0.29746,0 0.53906,0.241616 0.53906,0.539064 0,0.297456 -0.2416,0.539064 -0.53906,0.539064 z m 7.2,0 c -0.29745,0 -0.53906,-0.241608 -0.53906,-0.539064 0,-0.297448 0.24161,-0.539064 0.53906,-0.539064 0.29746,0 0.53906,0.241616 0.53906,0.539064 0,0.297456 -0.2416,0.539064 -0.53906,0.539064 z M 62.3625,30.75158 l 0,-3.056248 1.571875,0 0,0.510936 -0.210937,0 -0.851563,0.85 0,1.695312 -0.509375,0 z m 4.81875,0 0,-1.695312 -0.85,-0.85 -0.11875,0 0,-0.510936 1.478125,0 0,3.056248 -0.509375,0 z m 98.73125,-5.634376 0,-2.885936 0.48125,0 0,1.525 0.85,0.85 2.90938,0 0,0.510936 -4.24063,0 z m 6.51875,0 0,-0.510936 3.03281,0 0.85156,-0.85 0,-1.525 0.50938,0 0,2.885936 -4.39375,0 z m -15.25,-3.714056 c -0.18786,0 -0.34063,-0.152768 -0.34063,-0.340632 0,-0.187856 0.15277,-0.339056 0.34063,-0.339056 0.18786,0 0.34062,0.1512 0.34062,0.339056 0,0.187864 -0.15276,0.340632 -0.34062,0.340632 z m 14.17344,0 c -0.18787,0 -0.34063,-0.152768 -0.34063,-0.340632 0,-0.187856 0.15276,-0.339056 0.34063,-0.339056 0.18785,0 0.34062,0.1512 0.34062,0.339056 0,0.187864 -0.15277,0.340632 -0.34062,0.340632 z m -5.44219,-1.45 0,-2.943752 4.24063,0 0,0.510936 -2.90938,0 -0.85,0.85 0,1.582816 -0.48125,0 z m 10.40312,0 0,-1.582816 -0.85156,-0.85 -3.03281,0 0,-0.510936 4.39375,0 0,2.943752 -0.50938,0 z m -165.317182,-4.643752 0,-10.234376 100.884382,0 0,10.234376 -100.884382,0 z m 2.381249,-1.503128 2.607813,0 0.85,-0.85 0,-5.5 -0.85,-0.85 -2.607813,0 -0.85,0.85 0,5.5 0.85,0.85 z m 7.143751,0 2.607812,0 0.85,-0.85 0,-5.5 -0.85,-0.85 -2.607812,0 -0.851563,0.85 0,5.5 0.851563,0.85 z m 7.2,0 2.607812,0 0.85,-0.85 0,-5.5 -0.85,-0.85 -2.607812,0 -0.851563,0.85 0,5.5 0.851563,0.85 z m 7.2,0 2.607812,0 0.85,-0.85 0,-5.5 -0.85,-0.85 -2.607812,0 -0.851563,0.85 0,5.5 0.851563,0.85 z m 7.2,0 2.607812,0 0.85,-0.85 0,-5.5 -0.85,-0.85 -2.607812,0 -0.851563,0.85 0,5.5 0.851563,0.85 z m 7.2,0 2.607812,0 0.85,-0.85 0,-5.5 -0.85,-0.85 -2.607812,0 -0.851563,0.85 0,5.5 0.851563,0.85 z m 7.2,0 2.607812,0 0.85,-0.85 0,-5.5 -0.85,-0.85 -2.607812,0 -0.851563,0.85 0,5.5 0.851563,0.85 z m 7.2,0 2.607812,0 0.85,-0.85 0,-5.5 -0.85,-0.85 -2.607812,0 -0.851563,0.85 0,5.5 0.851563,0.85 z m 7.2,0 2.607812,0 0.85,-0.85 0,-5.5 -0.85,-0.85 -2.607812,0 -0.851563,0.85 0,5.5 0.851563,0.85 z m 7.2,0 2.60781,0 0.85,-0.85 0,-5.5 -0.85,-0.85 -2.60781,0 -0.851563,0.85 0,5.5 0.851563,0.85 z m 7.200002,0 2.607808,0 0.85,-0.85 0,-5.5 -0.85,-0.85 -2.607808,0 -0.851568,0.85 0,5.5 0.851568,0.85 z m 7.2,0 2.607808,0 0.85,-0.85 0,-5.5 -0.85,-0.85 -2.607808,0 -0.851568,0.85 0,5.5 0.851568,0.85 z m 7.2,0 2.60781,0 0.85,-0.85 0,-5.5 -0.85,-0.85 -2.60781,0 -0.85157,0.85 0,5.5 0.85157,0.85 z m 7.2,0 2.60781,0 0.85,-0.85 0,-5.5 -0.85,-0.85 -2.60781,0 -0.85157,0.85 0,5.5 0.85157,0.85 z M 14.682813,10.745332 c -0.297451,0 -0.5375,-0.241608 -0.5375,-0.539064 0,-0.297448 0.240049,-0.539064 0.5375,-0.539064 0.297449,0 0.539062,0.241616 0.539062,0.539064 0,0.297456 -0.241613,0.539064 -0.539062,0.539064 z m 7.143749,0 c -0.297449,0 -0.539062,-0.241608 -0.539062,-0.539064 0,-0.297448 0.241613,-0.539064 0.539062,-0.539064 0.29746,0 0.539063,0.241616 0.539063,0.539064 0,0.297456 -0.241603,0.539064 -0.539063,0.539064 z m 7.2,0 c -0.29746,0 -0.539062,-0.241608 -0.539062,-0.539064 0,-0.297448 0.241602,-0.539064 0.539062,-0.539064 0.297451,0 0.539063,0.241616 0.539063,0.539064 0,0.297456 -0.241612,0.539064 -0.539063,0.539064 z m 7.2,0 c -0.297449,0 -0.539062,-0.241608 -0.539062,-0.539064 0,-0.297448 0.241613,-0.539064 0.539062,-0.539064 0.297451,0 0.539063,0.241616 0.539063,0.539064 0,0.297456 -0.241612,0.539064 -0.539063,0.539064 z m 7.2,0 c -0.297449,0 -0.539062,-0.241608 -0.539062,-0.539064 0,-0.297448 0.241613,-0.539064 0.539062,-0.539064 0.297451,0 0.539063,0.241616 0.539063,0.539064 0,0.297456 -0.241612,0.539064 -0.539063,0.539064 z m 7.2,0 c -0.297449,0 -0.539062,-0.241608 -0.539062,-0.539064 0,-0.297448 0.241613,-0.539064 0.539062,-0.539064 0.297451,0 0.539063,0.241616 0.539063,0.539064 0,0.297456 -0.241612,0.539064 -0.539063,0.539064 z m 7.2,0 c -0.297449,0 -0.539062,-0.241608 -0.539062,-0.539064 0,-0.297448 0.241613,-0.539064 0.539062,-0.539064 0.297451,0 0.539063,0.241616 0.539063,0.539064 0,0.297456 -0.241612,0.539064 -0.539063,0.539064 z m 7.2,0 c -0.297449,0 -0.539062,-0.241608 -0.539062,-0.539064 0,-0.297448 0.241613,-0.539064 0.539062,-0.539064 0.297451,0 0.539063,0.241616 0.539063,0.539064 0,0.297456 -0.241612,0.539064 -0.539063,0.539064 z m 7.2,0 c -0.297449,0 -0.539062,-0.241608 -0.539062,-0.539064 0,-0.297448 0.241613,-0.539064 0.539062,-0.539064 0.297451,0 0.539063,0.241616 0.539063,0.539064 0,0.297456 -0.241612,0.539064 -0.539063,0.539064 z m 7.2,0 c -0.297449,0 -0.539062,-0.241608 -0.539062,-0.539064 0,-0.297448 0.241613,-0.539064 0.539062,-0.539064 0.297451,0 0.539063,0.241616 0.539063,0.539064 0,0.297456 -0.241612,0.539064 -0.539063,0.539064 z m 7.199998,0 c -0.297448,0 -0.539056,-0.241608 -0.539056,-0.539064 0,-0.297448 0.241608,-0.539064 0.539056,-0.539064 0.297464,0 0.539064,0.241616 0.539064,0.539064 0,0.297456 -0.2416,0.539064 -0.539064,0.539064 z m 7.2,0 c -0.297448,0 -0.539056,-0.241608 -0.539056,-0.539064 0,-0.297448 0.241608,-0.539064 0.539056,-0.539064 0.297464,0 0.539064,0.241616 0.539064,0.539064 0,0.297456 -0.2416,0.539064 -0.539064,0.539064 z m 7.2,0 c -0.29745,0 -0.53906,-0.241608 -0.53906,-0.539064 0,-0.297448 0.24161,-0.539064 0.53906,-0.539064 0.29746,0 0.53906,0.241616 0.53906,0.539064 0,0.297456 -0.2416,0.539064 -0.53906,0.539064 z m 7.2,0 c -0.29745,0 -0.53906,-0.241608 -0.53906,-0.539064 0,-0.297448 0.24161,-0.539064 0.53906,-0.539064 0.29746,0 0.53906,0.241616 0.53906,0.539064 0,0.297456 -0.2416,0.539064 -0.53906,0.539064 z"
       id="path4345"
       inkscape:connector-curvature="0" /><g
       id="g4167"
       transform="matrix(0.02834646,0,0,-0.02834646,0,137)"><g
         id="g4169" /></g><g
       id="g4173"
       transform="matrix(0.02834646,0,0,-0.02834646,0,137)" /><g
       id="g4378"><path
         inkscape:connector-curvature="0"
         style="fill:#008080;fill-opacity:1;fill-rule:evenodd;stroke:none"
         d="m 496.39161,2.599346e-6 0,137.000017400654 -213.99987,0 0,-137.000017400654 z"
         id="path4372" /><path
         inkscape:connector-curvature="0"
         style="fill:#ff0000;fill-opacity:1;fill-rule:evenodd;stroke:none"
         d="m 426.87293,135.04377 -0.76406,-0.76563 -4.39374,-4.39374 0,-1.75626 -1.07813,0 0,-10.23437 5.27344,0 -0.59531,-0.56563 0,-3.6 -8.27813,0 0,-10.23437 1.07813,0 0,-8.10625 8.72968,-8.73125 27.49688,0 1.61562,-1.615625 3.65625,0 1.61563,1.615625 9.72343,0 1.81407,-1.785937 3.62812,0 2.57969,2.551562 0,3.65625 -2.57969,2.551562 -3.62812,0 -1.81407,-1.785937 -9.35469,0 -1.98437,1.984375 -3.65625,0 -1.95625,-1.984375 -2.52344,0 0.85157,0.85 0,3.629688 -2.57969,2.578124 -3.65625,0 -1.78594,-1.814062 -1.72969,0 -4.875,4.90469 0,1.50156 8.27657,0 0,2.52344 6.83125,0 0,-4.16719 1.53125,-1.50156 2.21093,0 0,-1.814065 8.78751,0 0,15.987505 -1.78595,0 0,3.11718 -7.96562,7.96563 -13.20937,0 0,0.65156 15.93125,0 7.11406,-7.11406 0,-6.09531 9.89375,-9.89219 7.02968,0 4.73282,-4.762503 0,-34.015625 -2.975,-3.004687 -1.55938,0 -1.81406,1.814063 -3.62813,0 -2.57968,-2.579688 0,-3.628122 2.57968,-2.579688 3.62813,0 1.81406,1.814056 3.68438,0 6.0375,6.009379 0,38.325005 -7.76563,7.79531 -7.03125,0 -6.85937,6.85937 0,1.02032 2.18281,-2.21094 3.65625,0 2.57969,2.57968 0,3.62813 -1.81406,1.81406 0,2.07031 -10.94219,10.94063 -39.40157,0 z m -35.03593,-6.91563 0,-10.23437 8.27813,0 0,-4.16563 -11.87813,0 0,-9.29843 -6.63282,0 0,14.11719 -7.90781,7.93593 -19.30468,0 0,1.07813 -10.23282,0 0,-1.07813 -8.61718,0 -4.52344,0.006 -2.73281,0 0,1.58282 -8.7875,0 0,-1.02188 -5.61407,0 0,1.02188 -8.78593,0 0,-8.64688 -7.17188,0 0,2.52344 -7.34219,0 0,-10.23282 7.34219,0 0,2.52188 7.28438,0 0,-20.351562 8.39062,-8.390625 4.27969,0 0,-2.523438 1.10625,0 0,-3.742188 6.97344,-6.973437 7.70937,0 3.94063,-3.939063 0,-31.407811 -9.2125,0 0,7.167184 1.85937,0 0,8.907816 -30.65937,0 0,22.929686 -1.50157,1.529688 -2.75,0 0,5.528125 1.07657,0 0,10.232812 -7.34219,0 0,-10.232812 1.10625,0 0,-9.184375 1.50312,-1.53125 2.72032,0 0,-35.346874 -1.07657,0 0,-10.232816 50.54063,0 0,10.232816 -1.07656,0 0,18.056248 1.81406,-1.814064 0,-7.823432 1.50312,-1.503128 13.09532,0 0,-6.915624 -8.27657,0 0,-10.232816 1.07657,0 0,-2.154688 3.40156,-3.373432 51.84531,0 12.89844,9.721872 36.70781,0 5.01719,4.960936 0,22.16719 -8.84375,8.873437 3.74219,0 6.63281,-6.634375 0,-25.3125 -4.30782,-4.281248 -19.30468,0 -2.80625,-2.806248 0,-1.728128 -3.88281,0 0,-10.092192 12.925,0 0,9.439064 15.22187,0 7.34219,7.342192 0,29.593747 -9.66563,9.6375 -13.52187,0 0,0.114063 3.34531,3.345312 5.41406,0 1.78594,-1.785937 3.65625,0 2.57969,2.579688 0,3.628125 -2.57969,2.579687 -3.65625,0 -1.78594,-1.814063 -7.56875,0 -4.875,-4.848437 -21.99687,-0.02813 -12.41562,9.609375 0,5.471875 1.81406,1.814063 0,3.628125 -2.57969,2.579687 -3.65625,0 -1.19063,-1.21875 0,5.810935 8.27657,0 0,10.23281 -1.07657,0 0,1.78594 -1.53125,1.52969 -2.06875,0 0,0.85156 8.27657,0 0,10.23281 -21.74219,0 z m 22.62031,-1.02031 0,-8.19219 5.30156,0 0,8.19219 -5.30156,0 z m 67.77656,-5.30156 -1.98437,-1.98437 0,-2.80626 1.98437,-1.98437 2.80626,0 1.98437,1.98437 0,2.80626 -1.98437,1.98437 -2.80626,0 z m -127.84218,-0.50937 17.15,0 4.875,-4.90469 0,-20.068752 -3.85469,0 0,-10.120313 12.92656,0 0,10.120313 -3.88438,0 0,2.948437 14.91095,0 0,-5.840625 1.52968,-1.529688 3.0625,0 1.02031,-1.020312 0,-7.342188 0.53751,-1.078124 1.67343,-1.303125 13.60625,-10.545313 22.27969,0.02813 0,-2.210938 -21.93906,0 -8.73126,-8.701562 0,-10.120309 -6.03749,-4.365632 -8.84532,0 -3.34375,2.637504 0,12.98125 -3.31718,3.345312 -2.15469,0 0,2.495312 -7.34062,0 0,-2.495312 -6.80313,0 -5.95313,4.678125 -0.17031,3.203125 -0.59531,1.048438 -0.53907,0.340624 -7.90781,5.271876 -10.43125,0 -1.50312,-1.531251 0,-2.409374 -1.81406,-1.814063 0,-2.521875 -6.97344,6.971875 -7.7375,0 -3.94063,3.940625 0,1.5875 1.07657,0 0,10.232812 -7.34219,0 0,-2.521874 -2.125,0 -5.35781,5.356249 0,23.245318 3.48593,0 0,1.02031 5.61407,0 0,-1.02031 8.7875,0 0,1.81406 9.41093,0 2.94063,-0.0344 3.52187,0 0,-0.84531 10.23282,0 0,1.07813 z m 56.46562,-8.58907 0,-8.19219 5.30156,0 0,8.19219 -5.30156,0 z m -65.70625,-0.56719 0,-5.32968 8.22031,0 0,5.32968 -8.22031,0 z m -53.54687,-5.6125 0,-8.192182 5.32968,0 0,8.192182 -5.32968,0 z m 190.57343,-13.89062 -1.98437,-1.984375 0,-2.80625 1.98437,-1.984375 2.80625,0 1.98438,1.984375 0,2.80625 -1.98438,1.984375 -2.80625,0 z m -108.62344,-11.735938 0,-8.078124 10.94219,0 0,8.078124 -10.94219,0 z m -22.53593,-7.340624 3.94062,0 5.55625,-3.684376 0.17032,-3.004687 0.50937,-0.992188 8.73125,-6.860937 8.58907,0 0,-2.521878 7.34062,0 0,2.521878 0.28438,-0.282812 0,-12.700002 0.53749,-1.07656 0.45469,-0.368752 4.10938,-3.231248 -18.93438,0 -4.47969,-4.45 -3.42969,0 0,10.8 14.05938,0 0,-2.607816 7.34219,0 0,10.232816 -7.34219,0 0,-2.437504 -17.71562,0 -1.53125,-1.531248 0,-2.353128 -9.41094,0 0,4.139064 1.78594,1.814064 0,3.628126 -2.57969,2.579688 -3.62813,0 -2.57968,-2.579688 0,10.771875 2.57968,-2.579687 3.62813,0 2.57969,2.579687 0,3.628125 -0.56719,0.567188 z m 42.91719,-7.851563 0,-8.221875 5.32812,0 0,8.221875 -5.32812,0 z m -0.0859,-11.367191 0,-8.220312 5.32969,0 0,8.220312 -5.32969,0 z m 86.825,-5.698432 0,-8.220312 5.32968,0 0,8.220312 -5.32968,0 z m -181.07656,-4.567192 2.0125,0 0,-7.167184 -2.0125,0 0,7.167184 z m 45.15625,-8.189056 0,-8.192192 5.32812,0 0,8.192192 -5.32812,0 z m 103.54999,-10.77032 0,-8.107808 10.91251,0 0,8.107808 -10.91251,0 z m -154.91406,-9.807808 0,-10.234376 100.88438,0 0,10.234376 -100.88438,0 z"
         id="path4374" /><path
         style="fill:#808000;fill-opacity:1;stroke:none;stroke-width:2.69300008;stroke-miterlimit:10;stroke-dasharray:none;stroke-opacity:1"
         d="m 427.4022,133.59221 -4.125,-4.25625 -0.006,-2.71094 -0.25313,0 -0.85,-0.85 0,-5.5 0.85,-0.85 2.60782,0 0.85,0.85 0,5.5 -0.85,0.85 -0.22188,0 -0.0109,1.48281 3.00782,3.20625 36.37968,0 8.79063,-8.73437 0.005,-1.52031 c -1.05475,-0.42211 -1.80156,-1.4492 -1.80156,-2.65469 0,-1.58118 1.2813,-2.8625 2.86249,-2.8625 1.58119,0 2.86407,1.28132 2.86407,2.8625 0,1.2193 -0.76669,2.25286 -1.84063,2.66562 l 0.0297,2.42657 -10.13282,10.07031 -38.15468,0.025 z m 32.3,-3.64375 -28.20625,-0.0266 -1.025,-1.17188 0.002,-2.125 -0.25469,0 -0.85,-0.85 0,-5.5 0.85,-0.85 0.24219,0 -0.0234,-2.07812 -2.57344,0 -1.02031,-1.08907 0.002,-4.03281 -0.22657,0 -0.85,-0.85 0,-5.5 0.85,-0.85 2.60782,0 0.85,0.85 0,5.5 -0.85,0.85 -0.24844,0 0,2.95781 2.56562,-0.0172 1.08282,0.98594 -0.002,3.27344 0.20156,0 0.85,0.85 0,5.5 -0.85,0.85 -0.22032,0 0,1.1375 26.29219,-0.0109 8.03125,-8.01406 -0.0469,-6.05781 0.38125,-0.37344 8.68595,-8.70156 7.04687,0.002 5.50469,-5.451563 0,-35.4875 -3.64376,-3.717187 -3.325,0 c -0.4452,1.003078 -1.44591,1.704687 -2.61406,1.704687 -1.58118,0 -2.86406,-1.281312 -2.86406,-2.8625 0,-1.581185 1.28288,-2.862499 2.86406,-2.862499 1.1834,0 2.19822,0.718056 2.63438,1.742187 l 4.06406,0 5.14218,5.2625 0.006,-0.0016 0,36.996874 0.0125,0.0047 -6.95,6.887501 -6.96094,-0.0219 -7.80156,7.77344 -0.0547,6.16094 -9.30781,9.21406 z m -43.69063,-0.90625 0,-2.41719 -0.19375,0 -0.85,-0.85 0,-1.71094 -1.21094,0 0,-2.13437 1.21094,0 0,-1.65469 0.85,-0.85 0.19375,0 0,-1.9 2.13438,0 0,1.9 0.27969,0 0.85,0.85 0,1.65469 1.21562,0 0,2.13437 -1.21562,0 0,1.71094 -0.85,0.85 -0.27969,0 0,2.41719 -2.13438,0 z m -100.38281,-0.4 0,-2.10157 -1.80156,0 0,-5.72656 1.80156,0 0,-2.6125 2.10781,0 0,2.6125 1.81719,0 0,5.72656 -1.81719,0 0,2.10157 -2.10781,0 z m 78.58906,-2.01719 -0.85,-0.85 0,-5.5 0.85,-0.85 2.60782,0 0.85,0.85 0,5.5 -0.85,0.85 -2.60782,0 z m 7.2,0 -0.85,-0.85 0,-5.5 0.85,-0.85 0.24844,0 0,-3.525 -0.003,0 0,-0.98125 1.02344,-1.14844 2.46875,0 0,-1.54531 -0.1375,0 -0.85,-0.85 0,-5.5 0.85,-0.85 2.60782,0 0.85,0.85 0,5.5 -0.85,0.85 -0.31407,0 0,2.70625 -0.005,0 -0.96093,0.97344 -2.54531,-0.003 0,3.52344 0.225,0 0.85,0.85 0,5.5 -0.85,0.85 -2.60782,0 z m 7.2,0 -0.85,-0.85 0,-5.5 0.85,-0.85 2.60782,0 0.85,0.85 0,5.5 -0.85,0.85 -2.60782,0 z m 28.8,0 -0.85,-0.85 0,-5.5 0.85,-0.85 2.60782,0 0.85,0.85 0,1.70781 13.15937,0 5.82031,-5.9 0.005,-3.09219 -1.77657,0 0,-5.72656 5.725,0 0,5.72656 -1.80156,0 0.003,4.06876 -7.0625,7.06562 -14.07187,0 0,1.65 -0.85,0.85 -2.60782,0 z m -130.79062,-0.0844 0,-4.22031 -0.002,0 0,-4.40625 -10.20313,0 0,1.65313 -0.85,0.85 -2.60781,0 -0.85,-0.85 0,-5.5 0.85,-0.85 2.60781,0 0.85,0.85 0,1.73906 10.20313,0 0,-20.725 0.54062,-0.98125 6.5375,-6.545313 0.80157,-0.532812 4.90625,-0.0047 0,-1.664062 0.85,-0.851563 0.24531,0 0,-3.948437 0.35312,-1.070312 5.38907,-5.415626 0.95625,-0.346874 7.03437,0.01875 4.87031,-4.790624 0,-33.54219 -0.19531,0 -0.85156,-0.85 0,-5.5 0.85156,-0.85 2.60781,0 0.85,0.85 0,5.5 -0.85,0.85 -0.13437,0 0,33.646877 -0.0141,0.01094 -0.49531,1.179688 -5.33282,5.357812 -1.01093,0.315625 -7.03907,-0.02031 -4.71093,4.65625 0,3.948437 0.0844,0 0.85156,0.851563 0,5.498437 -0.85156,0.85 -2.60782,0 -0.85,-0.85 0,-1.654687 -4.29843,-0.01563 -6.18907,6.184375 0,25.448436 3.42969,0 0,5.72656 -5.72656,0 z m 14.4,0 0,-5.72656 5.72656,0 0,1.86406 18.90625,0 0,-0.10624 0.85156,-0.85 5.49844,0 0.85,0.85 0,0.10624 19.30469,0 5.6875,-5.5 -0.0109,-22.357807 -2.92656,0 -0.85157,-0.85 0,-5.385938 0.85157,-0.85 8.22031,0 0.85,0.85 0,5.385938 -0.85,0.85 -2.99375,0 -0.0141,5.915627 17.825,0 0,-6.00469 1.30781,-1.3625 1.08594,0 0,0.0016 1.76249,0 c 0.30231,-0.696381 0.87547,-1.243755 1.58438,-1.521875 l 0,-7.598438 0.59062,-1.073438 14.175,-11.076562 23.29376,0.0094 -0.0172,-2.8125 0.9,-0.928125 14.74843,0.01094 7.52032,-7.485937 0.0125,-26.603126 -5.19062,-5.128128 -19.2672,-0.05625 -2.06093,-1.923432 0.075,-2.576568 -3.01094,0 -0.85,-0.85 0,-5.385936 0.85,-0.85 8.22187,0 0.85,0.85 0,5.385936 -0.85,0.85 -3.01093,0 -0.0297,1.665624 0.73594,0.687504 19.2875,-0.0047 6.42656,6.454688 -0.0266,28.353124 -8.75782,8.78125 -14.43124,0.09063 0.0156,2.05625 4.28594,4.345313 6.975,-0.02656 c 0.4282,-1.041758 1.44918,-1.776562 2.64532,-1.776562 1.58118,0 2.86249,1.281314 2.86249,2.8625 0,1.581188 -1.28131,2.864062 -2.86249,2.864062 -1.1996,0 -2.22248,-0.739367 -2.64844,-1.785937 l -7.92969,0.0094 -4.85156,-4.885938 -23.20626,-0.01719 -13.33593,10.3375 0,7.246875 c 1.03863,0.429631 1.77031,1.451436 1.77031,2.645313 0,1.581189 -1.28131,2.8625 -2.8625,2.8625 -1.21924,0 -2.25438,-0.76521 -2.66719,-1.839062 l -1.72187,0 0,9.492185 0.0797,0 0.85,0.85 0,5.5 -0.85,0.85 -2.60782,0 -0.85,-0.85 0,-5.5 0.85,-0.85 0.13438,0 0,-1.89531 -17.83125,0 -0.0375,14.73281 -6.90624,7.07344 -20.31719,0 0,0.24375 -0.85,0.85 -5.49844,0 -0.85156,-0.85 0,-0.24375 -18.90625,0 0,1.60468 -5.72656,0 z m -11.53594,-1.95622 c 0.50097,0 0.90625,-0.40685 0.90625,-0.90782 0,-0.50097 -0.40528,-0.90625 -0.90625,-0.90625 -0.50097,0 -0.90781,0.40528 -0.90781,0.90625 0,0.50097 0.40684,0.90782 0.90781,0.90782 z m 7.2,0 c 0.50097,0 0.90625,-0.40685 0.90625,-0.90782 0,-0.50097 -0.40528,-0.90625 -0.90625,-0.90625 -0.50097,0 -0.90781,0.40528 -0.90781,0.90625 0,0.50097 0.40684,0.90782 0.90781,0.90782 z m 7.2,0 c 0.50097,0 0.90625,-0.40685 0.90625,-0.90782 0,-0.50097 -0.40528,-0.90625 -0.90625,-0.90625 -0.50097,0 -0.90781,0.40528 -0.90781,0.90625 0,0.50097 0.40684,0.90782 0.90781,0.90782 z m 25.36875,-0.36876 c 0.18786,0 0.34063,-0.15276 0.34063,-0.34062 0,-0.18786 -0.15277,-0.33906 -0.34063,-0.33906 -0.18786,0 -0.33906,0.1512 -0.33906,0.33906 0,0.18786 0.1512,0.34062 0.33906,0.34062 z m 46.2625,-0.65156 c 0.29745,0 0.5375,-0.24161 0.5375,-0.53906 0,-0.29746 -0.24005,-0.53906 -0.5375,-0.53906 -0.29745,0 -0.53907,0.2416 -0.53907,0.53906 0,0.29745 0.24162,0.53906 0.53907,0.53906 z m 7.2,0 c 0.29745,0 0.5375,-0.24161 0.5375,-0.53906 0,-0.29746 -0.24005,-0.53906 -0.5375,-0.53906 -0.29745,0 -0.53907,0.2416 -0.53907,0.53906 0,0.29745 0.24162,0.53906 0.53907,0.53906 z m 7.2,0 c 0.29745,0 0.5375,-0.24161 0.5375,-0.53906 0,-0.29746 -0.24005,-0.53906 -0.5375,-0.53906 -0.29745,0 -0.53907,0.2416 -0.53907,0.53906 0,0.29745 0.24162,0.53906 0.53907,0.53906 z m 7.2,0 c 0.29746,0 0.5375,-0.24161 0.5375,-0.53906 0,-0.29746 -0.24004,-0.53906 -0.5375,-0.53906 -0.29745,0 -0.53907,0.2416 -0.53907,0.53906 0,0.29745 0.24162,0.53906 0.53907,0.53906 z m 7.2,0 c 0.29745,0 0.5375,-0.24161 0.5375,-0.53906 0,-0.29746 -0.24005,-0.53906 -0.5375,-0.53906 -0.29746,0 -0.53907,0.2416 -0.53907,0.53906 0,0.29745 0.24161,0.53906 0.53907,0.53906 z m 7.2,0 c 0.29745,0 0.5375,-0.24161 0.5375,-0.53906 0,-0.29746 -0.24005,-0.53906 -0.5375,-0.53906 -0.29745,0 -0.53907,0.2416 -0.53907,0.53906 0,0.29745 0.24162,0.53906 0.53907,0.53906 z m 7.2,0 c 0.27803,0 0.49787,-0.21395 0.52657,-0.48437 l 0,-0.10938 c -0.0287,-0.27043 -0.24854,-0.48437 -0.52657,-0.48437 -0.29745,0 -0.53907,0.2416 -0.53907,0.53906 0,0.29745 0.24162,0.53906 0.53907,0.53906 z m 43.74844,-0.0266 0,-2.51562 c -0.65139,-0.2872 -1.17376,-0.80883 -1.46251,-1.45938 l -1.84531,0 0,-2.27812 1.825,0 c 0.28485,-0.66884 0.81832,-1.20391 1.48282,-1.49688 l 0,-2.77188 2.27813,0 0,2.75782 c 0.67686,0.29024 1.22074,0.83322 1.50936,1.51094 l 1.54376,0 0,2.27812 -1.56407,0 c -0.29265,0.65937 -0.82537,1.18885 -1.48905,1.47344 l 0,2.50156 -2.27813,0 z m -40.09219,-3.12031 0,-2.52344 -8.27656,0 0,-2.72031 -0.28438,-0.28438 0,-0.0844 -0.0844,0 -1.07812,-1.07657 13.32344,0 0,-1.72968 0.0844,-0.0562 0,-0.7375 10.06407,0 0,3.96875 2.15312,0 0,0.39687 -4.76093,4.7625 -0.0859,0.0844 -11.05468,0 z m 32.25781,-1.10469 c 0.50097,0 0.90782,-0.40684 0.90782,-0.90781 0,-0.50097 -0.40685,-0.90781 -0.90782,-0.90781 -0.50097,0 -0.90625,0.40684 -0.90625,0.90781 0,0.50097 0.40528,0.90781 0.90625,0.90781 z m 8.98594,0 c 0.50097,0 0.90781,-0.40684 0.90781,-0.90781 0,-0.50097 -0.40684,-0.90781 -0.90781,-0.90781 -0.50097,0 -0.90625,0.40684 -0.90625,0.90781 0,0.50097 0.40528,0.90781 0.90625,0.90781 z m -189.35469,-1.95621 c 0.29745,0 0.53907,-0.24161 0.53907,-0.53906 0,-0.29745 -0.24162,-0.53907 -0.53907,-0.53907 -0.29745,0 -0.5375,0.24162 -0.5375,0.53907 0,0.29745 0.24005,0.53906 0.5375,0.53906 z m 118.15782,-0.94844 0,-4.18281 -0.20782,0 -0.85,-0.85 0,-1.56875 -1.19687,0 0,-2.13437 1.19687,0 0,-1.79688 0.85,-0.85 0.20782,0 0,-1.81094 2.13437,0 0,1.81094 0.26563,0 0.85,0.85 0,1.79688 1.22968,0 0,2.13437 -1.22968,0 0,1.56875 -0.85,0.85 -0.26563,0 0,4.18281 -2.13437,0 z m -64.12813,-2.65312 0,-2.125 -1.78594,0 -0.85156,-0.85 0,-0.23125 -3.58594,0 0,-2.27813 3.58594,0 0,-0.0984 0.85156,-0.85 1.78594,0 0,-1.99532 2.02656,0 0,1.99532 1.68594,0 0.85,0.85 0,0.0984 3.11719,0 0,2.27813 -3.11719,0 0,0.23125 -0.85,0.85 -1.68594,0 0,2.125 -2.02656,0 z m 42.32031,-1.52969 -0.85,-0.85 0,-5.5 0.85,-0.85 2.60782,0 0.85,0.85 0,5.5 -0.85,0.85 -2.60782,0 z m 28.8,0 -0.85,-0.85 0,-5.5 0.85,-0.85 0.22188,0 0,-8.45 0.35312,-0.934375 7.0125,-7 1.08907,-0.434375 0.20312,0.0016 26.925,0 c 0.46049,-0.964631 1.4364,-1.635938 2.57657,-1.635938 1.14016,0 2.11607,0.671307 2.57656,1.635938 l 11.54062,0 c 0.41402,-1.0714 1.44658,-1.834375 2.66406,-1.834375 1.58118,0 2.8625,1.281312 2.8625,2.8625 0,1.581188 -1.28132,2.8625 -2.8625,2.8625 -1.18936,0 -2.20815,-0.72544 -2.64062,-1.757813 l -11.43906,0 c -0.3809,1.133923 -1.43932,1.95625 -2.70156,1.95625 -1.26225,0 -2.32068,-0.822327 -2.70157,-1.95625 l -26.59843,0 -6.725,6.525 0,8.159378 0.25156,0 0.85,0.85 0,5.5 -0.85,0.85 -2.60782,0 z m 14.4,0 -0.85,-0.85 0,-5.5 0.85,-0.85 0.25,0 -0.0328,-4.5375 6.9625,-7.084375 4.29531,0 c 0.43247,-1.032376 1.45282,-1.757812 2.64219,-1.757812 1.58118,0 2.8625,1.282874 2.8625,2.864062 0,1.581189 -1.28132,2.8625 -2.8625,2.8625 -1.18465,0 -2.2021,-0.719467 -2.6375,-1.745313 l -3.32187,0 -5.77969,5.760938 0,3.6375 0.22969,0 0.85,0.85 0,5.5 -0.85,0.85 -2.60782,0 z m 7.2,0 -0.85,-0.85 0,-5.5 0.85,-0.85 2.60782,0 0.85,0.85 0,1.64531 9.86562,0 0,-5.66875 2.22344,0 1.51874,0 0,-1.7875 5.725,0 0,5.72656 -5.725,0 0,-1.71562 -1.51874,0 0,4.44375 -1.44531,1.19219 0,0.0328 -10.64375,0 0,1.63125 -0.85,0.85 -2.60782,0 z m 19.92813,-1.19062 c 0.50097,0 0.90625,-0.40528 0.90625,-0.90626 0,-0.50096 -0.40528,-0.90781 -0.90625,-0.90781 -0.50097,0 -0.90782,0.40685 -0.90782,0.90781 0,0.50098 0.40685,0.90626 0.90782,0.90626 z m -111.68594,-1.21876 c 0.18786,0 0.34063,-0.15276 0.34063,-0.34062 0,-0.18787 -0.15277,-0.33906 -0.34063,-0.33906 -0.18786,0 -0.33906,0.15119 -0.33906,0.33906 0,0.18786 0.1512,0.34062 0.33906,0.34062 z m 42.6625,-0.65156 c 0.29745,0 0.5375,-0.24161 0.5375,-0.53906 0,-0.29745 -0.24005,-0.53906 -0.5375,-0.53906 -0.29745,0 -0.53907,0.24161 -0.53907,0.53906 0,0.29745 0.24162,0.53906 0.53907,0.53906 z m 7.2,0 c 0.29745,0 0.5375,-0.24161 0.5375,-0.53906 0,-0.29745 -0.24005,-0.53906 -0.5375,-0.53906 -0.29745,0 -0.53907,0.24161 -0.53907,0.53906 0,0.29745 0.24162,0.53906 0.53907,0.53906 z m 7.2,0 c 0.29745,0 0.5375,-0.24161 0.5375,-0.53906 0,-0.29745 -0.24005,-0.53906 -0.5375,-0.53906 -0.29745,0 -0.53907,0.24161 -0.53907,0.53906 0,0.29745 0.24162,0.53906 0.53907,0.53906 z m 7.2,0 c 0.29745,0 0.5375,-0.24161 0.5375,-0.53906 0,-0.29745 -0.24005,-0.53906 -0.5375,-0.53906 -0.29745,0 -0.53907,0.24161 -0.53907,0.53906 0,0.29745 0.24162,0.53906 0.53907,0.53906 z m 7.2,0 c 0.29746,0 0.5375,-0.24161 0.5375,-0.53906 0,-0.29745 -0.24004,-0.53906 -0.5375,-0.53906 -0.29745,0 -0.53907,0.24161 -0.53907,0.53906 0,0.29745 0.24162,0.53906 0.53907,0.53906 z m 7.2,0 c 0.29745,0 0.5375,-0.24161 0.5375,-0.53906 0,-0.29745 -0.24005,-0.53906 -0.5375,-0.53906 -0.29746,0 -0.53907,0.24161 -0.53907,0.53906 0,0.29745 0.24161,0.53906 0.53907,0.53906 z m 7.2,0 c 0.29745,0 0.5375,-0.24161 0.5375,-0.53906 0,-0.29745 -0.24005,-0.53906 -0.5375,-0.53906 -0.29745,0 -0.53907,0.24161 -0.53907,0.53906 0,0.29745 0.24162,0.53906 0.53907,0.53906 z m 7.2,0 c 0.29745,0 0.5375,-0.24161 0.5375,-0.53906 0,-0.29745 -0.24005,-0.53906 -0.5375,-0.53906 -0.29745,0 -0.53907,0.24161 -0.53907,0.53906 0,0.29745 0.24162,0.53906 0.53907,0.53906 z m -149.10781,-1.11562 0,-2.03125 -0.25,0 -0.85,-0.85 0,-2.0125 -2.1375,0 0,-1.48907 2.1375,0 0,-1.998433 0.85,-0.85 0.25,0 0,-1.834374 2.20312,0 0,1.834374 0.15469,0 0.85,0.85 0,1.998433 1.98594,0 0,1.48907 -1.98594,0 0,2.0125 -0.85,0.85 -0.15469,0 0,2.03125 -2.20312,0 z m 167.73125,-4.21406 c 0.50097,0 0.90625,-0.4053 0.90625,-0.90626 0,-0.50096 -0.40528,-0.90781 -0.90625,-0.90781 -0.50097,0 -0.90782,0.40685 -0.90782,0.90781 0,0.50096 0.40685,0.90626 0.90782,0.90626 z m -166.67813,-0.87813 c 0.29745,0 0.53907,-0.24161 0.53907,-0.53906 0,-0.29745 -0.24162,-0.53907 -0.53907,-0.53907 -0.29745,0 -0.5375,0.24162 -0.5375,0.53907 0,0.29745 0.24005,0.53906 0.5375,0.53906 z m 110.46719,-7.540625 c 0.50097,0 0.90625,-0.40528 0.90625,-0.90625 0,-0.500969 -0.40528,-0.907813 -0.90625,-0.907813 -0.50097,0 -0.90781,0.406844 -0.90781,0.907813 0,0.50097 0.40684,0.90625 0.90781,0.90625 z m 43.2,0 c 0.50097,0 0.90625,-0.40528 0.90625,-0.90625 0,-0.500969 -0.40528,-0.907813 -0.90625,-0.907813 -0.46828,0 -0.84075,0.360164 -0.88906,0.815625 l 0,0.184375 c 0.0483,0.455464 0.42078,0.814063 0.88906,0.814063 z m 34.53594,-1.071875 0,-2.475 c -0.6734,-0.287779 -1.21247,-0.82657 -1.50313,-1.498437 l -1.80469,0 0,-2.278126 1.80938,0 c 0.29165,-0.667337 0.82829,-1.202675 1.49844,-1.489062 l 0,-2.779687 2.27813,0 0,2.796875 c 0.65488,0.289669 1.1803,0.815478 1.46718,1.471874 l 0.81094,0 0,2.278126 -0.80625,0 c -0.28591,0.660889 -0.81378,1.190145 -1.47187,1.481249 l 0,2.492188 -2.27813,0 z m -191.00938,-2.642188 -0.85,-0.85 0,-5.498437 0.85,-0.851563 0.0953,0 0,-9.515624 0,-0.07344 1.23125,-1.148438 3.02657,0 0,-38.357814 -0.1,0 -0.85157,-0.85 0,-5.5 0.85157,-0.85 2.60781,0 0.85,0.85 0,5.5 -0.85,0.85 -0.22969,0 0,39.125002 -0.006,0 0,0.292188 -1.32187,1.218749 -2.92969,0 0,8.459375 0.23437,0 0.85156,0.851563 0,5.498437 -0.85156,0.85 -2.60781,0 z m 87.56251,-0.08438 c 0.18786,0 0.34062,-0.152761 0.34062,-0.340625 0,-0.187863 -0.15276,-0.339062 -0.34062,-0.339062 -0.18787,0 -0.33907,0.151199 -0.33907,0.339062 0,0.187864 0.1512,0.340625 0.33907,0.340625 z m 78.775,-1.275 c 0.50096,0 0.9078,-0.406842 0.9078,-0.907812 0,-0.50097 -0.40684,-0.90625 -0.9078,-0.90625 -0.50098,0 -0.90626,0.40528 -0.90626,0.90625 0,0.50097 0.40528,0.907812 0.90626,0.907812 z m 16.78124,-0.198437 c 0.50097,0 0.90781,-0.406843 0.90781,-0.907812 0,-0.500971 -0.40684,-0.906251 -0.90781,-0.906251 -0.50096,0 -0.90781,0.40528 -0.90781,0.906251 0,0.500969 0.40685,0.907812 0.90781,0.907812 z m 9.01407,0 c 0.50097,0 0.90781,-0.406843 0.90781,-0.907812 0,-0.500971 -0.40684,-0.906251 -0.90781,-0.906251 -0.50098,0 -0.90626,0.40528 -0.90626,0.906251 0,0.500969 0.40528,0.907812 0.90626,0.907812 z m -190.82813,-1.50312 c 0.29746,0 0.53906,-0.241611 0.53906,-0.539063 0,-0.297449 -0.2416,-0.5375 -0.53906,-0.5375 -0.29745,0 -0.53906,0.240051 -0.53906,0.5375 0,0.297452 0.24161,0.539063 0.53906,0.539063 z m 28.8,0 c 0.29745,0 0.53906,-0.241611 0.53906,-0.539063 0,-0.297449 -0.24161,-0.5375 -0.53906,-0.5375 -0.29745,0 -0.53906,0.240051 -0.53906,0.5375 0,0.297452 0.24161,0.539063 0.53906,0.539063 z m 56.42344,-4.6875 0,-3.532812 -3.075,0 -0.85157,-0.85 0,-1.429688 -1.88593,0 0,-2.279687 1.88593,0 0,-1.676563 0.85157,-0.85 3.075,0 0,-3.285937 2.27969,0 0,3.285937 2.86562,0 0.85,0.85 0,1.676563 2.09687,0 0,2.279687 -2.09687,0 0,1.429688 -0.85,0.85 -2.86562,0 0,3.532812 -2.27969,0 z m 79.80938,-4.95 c 0.50096,0 0.9078,-0.406843 0.9078,-0.907812 0,-0.500971 -0.40684,-0.906251 -0.9078,-0.906251 -0.50098,0 -0.90626,0.40528 -0.90626,0.906251 0,0.500969 0.40528,0.907812 0.90626,0.907812 z m -101.85001,-1.7125 -9.06875,-0.04531 -0.77656,-1.118751 0,-2.301562 c -1.04103,-0.428526 -1.775,-1.449701 -1.775,-2.645313 0,-1.581185 1.28131,-2.8625 2.8625,-2.8625 1.58118,0 2.8625,1.281315 2.8625,2.8625 0,1.204285 -0.74537,2.230221 -1.79844,2.653126 l 0,1.243749 7.08125,0 6.5875,-4.340624 0.19844,-3.332813 0.47813,-0.75 7.85312,-6.154687 9.59063,-0.0094 0,-1.640624 0.85156,-0.85 2.60781,0 0.85,0.85 0,1.684375 2.23125,0.02031 1.16094,-1.114063 -0.0641,-13.337502 5.78282,-4.520312 11.22031,0.02969 8.53907,6.064064 0.0531,10.570313 6.63281,6.539062 30.04375,0 8.23281,-8.274999 0.003,-19.204688 -2.85,-2.831248 -36.30313,0.04531 -13.01093,-9.69688 -50.23907,0.03282 0,3.35156 0.13594,0 0.85,0.85 0,5.5 -0.85,0.85 -2.60781,0 -0.85156,-0.85 0,-5.5 0.85156,-0.85 0.19375,0 0,-3.007808 2.55312,-2.528128 50.57656,-0.02813 12.91251,9.725 36.73437,0.04531 4.15469,4.162504 0.0797,20.882813 -9.71875,9.542187 -31.87656,0.02031 -7.79064,-7.879688 0.003,-10.321873 -7.20937,-5.093752 -9.77969,-0.0375 -4.35469,3.42812 0.005,13.042189 -2.5375,2.554687 -2.90625,-0.08437 0,1.720313 -0.85,0.85 -2.60781,0 -0.85156,-0.85 0,-1.701563 -8.95782,0.03125 -6.72344,5.498437 -0.18749,3.014063 -0.55156,1.009375 -7.67501,5.090625 z m 23.07501,-0.07344 c 0.18786,0 0.34062,-0.152761 0.34062,-0.340625 0,-0.187863 -0.15276,-0.339062 -0.34062,-0.339062 -0.18787,0 -0.33907,0.151199 -0.33907,0.339062 0,0.187864 0.1512,0.340625 0.33907,0.340625 z m -32.46876,-5.393749 1.27344,0 c 0.16649,-0.164455 0.27031,-0.391243 0.27031,-0.643751 0,-0.500969 -0.40684,-0.907812 -0.90781,-0.907812 -0.50097,0 -0.90625,0.406843 -0.90625,0.907812 0,0.252515 0.10381,0.479295 0.27031,0.643751 z m 48.88907,-3.635938 0,-2.989062 -0.14844,0 -0.85156,-0.85 0,-1.540625 -2.30782,0 0,-2.278126 2.30782,0 0,-1.681249 0.85156,-0.85 0.14844,0 0,-4.16719 -0.23438,0 -0.85,-0.85 0,-1.568752 -2.22344,0 0,-2.27812 2.22344,0 0,-1.653128 0.85,-0.85 0.23438,0 0,-1.048432 2.27812,0 0,1.048432 0.0953,0 0.85,0.85 0,1.653128 2.12344,0 0,2.27812 -2.12344,0 0,1.568752 -0.85,0.85 -0.0953,0 0,4.16719 0.18125,0 0.85,0.85 0,1.681249 2.0375,0 0,2.278126 -2.0375,0 0,1.540625 -0.85,0.85 -0.18125,0 0,2.989062 -2.27812,0 z m 25.33437,-4.917187 -5.69844,-5.696875 0,-10.431254 -7.53906,-5.414056 23.01718,0 2.52188,2.15312 0,11.339064 -1.75624,1.757816 0,3.628122 1.75624,1.757812 0,0.906251 -12.30156,0 z m 16.97968,-0.310938 1.58751,-1.5875 6.83125,0 10.54531,-10.517187 0,4.989064 -7.14375,7.115623 -11.82032,0 z M 382.19908,62.13752 c 0.29744,0 0.53905,-0.241611 0.53905,-0.539062 0,-0.297451 -0.24161,-0.539063 -0.53905,-0.539063 -0.29747,0 -0.53907,0.241612 -0.53907,0.539063 0,0.297451 0.2416,0.539062 0.53907,0.539062 z m 14.4,0 c 0.29744,0 0.53905,-0.241611 0.53905,-0.539062 0,-0.297451 -0.24161,-0.539063 -0.53905,-0.539063 -0.29746,0 -0.53907,0.241612 -0.53907,0.539063 0,0.297451 0.24161,0.539062 0.53907,0.539062 z m 39.11874,-0.482813 c -1.58118,0 -2.86406,-1.281312 -2.86406,-2.8625 0,-1.187624 0.72316,-2.205507 1.75312,-2.639059 l -0.0141,-13.382816 -2.95312,-2.94844 -58.61406,0.07031 -4.73594,-4.485936 -0.575,0 -0.85157,-0.85 0,-5.5 0.85157,-0.85 2.60781,0 0.85,0.85 0,5.5 -0.22969,0.229688 2.81719,2.903128 58.78281,-0.05625 4.23906,4.321872 0.025,14.192184 c 0.7092,0.292368 1.27248,0.860674 1.56094,1.571878 l 6.22813,0 8.83906,-8.81719 0.0203,-0.767184 -0.22031,0 -0.85,-0.85156 0,-5.49844 0.85,-0.85 2.60781,0 0.85157,0.85 0,5.49844 -0.85157,0.85156 -0.19062,0 -0.005,1.646872 -9.96094,10.21719 -7.38125,0 c -0.45616,0.975928 -1.43908,1.656249 -2.5875,1.656249 z m 0,-1.956249 c 0.50098,0 0.90626,-0.40528 0.90626,-0.906251 0,-0.500969 -0.40528,-0.907812 -0.90626,-0.907812 -0.50097,0 -0.90781,0.406843 -0.90781,0.907812 0,0.500971 0.40684,0.906251 0.90781,0.906251 z m 43.2,0 c 0.50098,0 0.90626,-0.40528 0.90626,-0.906251 0,-0.500969 -0.40528,-0.907812 -0.90626,-0.907812 -0.50097,0 -0.90781,0.406843 -0.90781,0.907812 0,0.500971 0.40684,0.906251 0.90781,0.906251 z m -131.72656,-0.05625 c -1.58119,0 -2.8625,-1.281312 -2.8625,-2.862499 0,-1.175624 0.71005,-2.1826 1.72344,-2.62344 l 0,-8.139064 0.72187,-0.671872 13.94063,-0.07969 0.003,-9.859376 -0.20313,0 -0.85156,-0.85 0,-5.5 0.85156,-0.85 2.60781,0 0.85,0.85 0,5.5 -0.85,0.85 -0.23437,0 -0.006,13.784376 17.07812,0.0125 0,-1.72188 0.85,-0.85 2.60781,0 0.85,0.85 0,5.5 -0.85,0.85 -2.60781,0 -0.85,-0.85 0,-1.604688 -18.41718,-0.02969 -0.81875,-0.793744 0.0187,-3.09844 -12.41094,0.05625 0,6.645312 c 1.01274,0.441112 1.72188,1.44828 1.72188,2.62344 0,1.581187 -1.28132,2.862499 -2.8625,2.862499 z m 0,-1.956249 c 0.50097,0 0.90781,-0.40528 0.90781,-0.90625 0,-0.500968 -0.40684,-0.907816 -0.90781,-0.907816 -0.50097,0 -0.90625,0.406848 -0.90625,0.907816 0,0.50097 0.40528,0.90625 0.90625,0.90625 z m 92.07031,-1.55781 -0.93593,-0.964064 0,-13.77656 -0.003,-0.168752 -0.19531,-0.2 -2.55156,-2.381248 -2.29532,-2.29532 20.69219,0 2.52344,2.153128 0,0.935936 -5.61251,0 0,9.95 -6.775,6.74688 -4.84687,0 z m -137.90625,-4.734376 0,-5.726568 1.675,0 0,-10.260936 -0.11562,0 -0.85156,-0.85 0,-5.5 0.85156,-0.85 2.60781,0 0.85,0.85 0,5.5 -0.85,0.85 -0.21406,0 0,10.260936 1.77187,0 0,5.726568 -5.725,0 z m 7.2,0 0,-5.726568 1.69063,0 0,-10.260936 -0.13125,0 -0.85156,-0.85 0,-5.5 0.85156,-0.85 2.60781,0 0.85,0.85 0,5.5 -0.85,0.85 -0.19687,0 0,10.260936 1.75468,0 0,5.726568 -5.725,0 z m 7.2,0 0,-5.726568 1.70625,0 0,-10.260936 -0.14687,0 -0.85156,-0.85 0,-5.5 0.85156,-0.85 2.60781,0 0.85,0.85 0,5.5 -0.85,0.85 -0.18125,0 0,10.260936 1.73906,0 0,5.726568 -5.725,0 z m 7.2,0 0,-5.726568 1.72344,0 0,-10.260936 -0.16406,0 -0.85156,-0.85 0,-5.5 0.85156,-0.85 2.60781,0 0.85,0.85 0,5.5 -0.85,0.85 -0.16562,0 0,10.260936 1.72343,0 0,5.726568 -5.725,0 z m 159.28594,-0.295312 0,-2.964064 -0.20625,0 -0.85,-0.85156 0,-1.565632 -2.25157,0 0,-2.27812 2.25157,0 0,-1.654688 0.85,-0.85 0.20625,0 0,-5.190624 2.27813,0 0,5.190624 0.12343,0 0.85157,0.85 0,1.654688 2.09374,0 0,2.27812 -2.09374,0 0,1.565632 -0.85157,0.85156 -0.12343,0 0,2.964064 -2.27813,0 z M 382.1147,50.770332 c 0.29745,0 0.5375,-0.241608 0.5375,-0.539064 0,-0.297448 -0.24005,-0.539064 -0.5375,-0.539064 -0.29746,0 -0.53906,0.241616 -0.53906,0.539064 0,0.297456 0.2416,0.539064 0.53906,0.539064 z m 14.4,0 c 0.29745,0 0.5375,-0.241608 0.5375,-0.539064 0,-0.297448 -0.24005,-0.539064 -0.5375,-0.539064 -0.29746,0 -0.53906,0.241616 -0.53906,0.539064 0,0.297456 0.2416,0.539064 0.53906,0.539064 z m -92.29688,-1.332808 c 0.50097,0 0.90782,-0.405288 0.90782,-0.906256 0,-0.500968 -0.40685,-0.907808 -0.90782,-0.907808 -0.50097,0 -0.90625,0.40684 -0.90625,0.907808 0,0.500976 0.40528,0.906256 0.90625,0.906256 z m 7.2,0 c 0.50096,0 0.90782,-0.405288 0.90782,-0.906256 0,-0.500968 -0.40686,-0.907808 -0.90782,-0.907808 -0.50097,0 -0.90625,0.40684 -0.90625,0.907808 0,0.500976 0.40528,0.906256 0.90625,0.906256 z m 7.2,0 c 0.50097,0 0.90782,-0.405288 0.90782,-0.906256 0,-0.500968 -0.40685,-0.907808 -0.90782,-0.907808 -0.50097,0 -0.90625,0.40684 -0.90625,0.907808 0,0.500976 0.40528,0.906256 0.90625,0.906256 z m 7.2,0 c 0.50097,0 0.90782,-0.405288 0.90782,-0.906256 0,-0.500968 -0.40685,-0.907808 -0.90782,-0.907808 -0.50097,0 -0.90625,0.40684 -0.90625,0.907808 0,0.500976 0.40528,0.906256 0.90625,0.906256 z M 454.5397,45.071892 c 0.29745,0 0.5375,-0.240048 0.5375,-0.537496 0,-0.297448 -0.24005,-0.539064 -0.5375,-0.539064 -0.29746,0 -0.53906,0.241616 -0.53906,0.539064 0,0.297448 0.2416,0.537496 0.53906,0.537496 z m 28.8,0 c 0.29746,0 0.5375,-0.240048 0.5375,-0.537496 0,-0.297448 -0.24004,-0.539064 -0.5375,-0.539064 -0.29746,0 -0.53906,0.241616 -0.53906,0.539064 0,0.297448 0.2416,0.537496 0.53906,0.537496 z m -137.01406,-6.660936 0,-3.004688 -0.21094,0 -0.85156,-0.85 0,-1.52656 -1.24063,0 0,-2.278128 1.24063,0 0,-1.695312 0.85156,-0.85 0.21094,0 0,-5.15 2.27812,0 0,5.15 0.11875,0 0.85,0.85 0,1.695312 1.05469,0 0,2.278128 -1.05469,0 0,1.52656 -0.85,0.85 -0.11875,0 0,3.004688 -2.27812,0 z m 47.94844,-2.239064 0,-9.496872 -0.002,-0.20156 0,-0.165624 11.19844,0 2.01249,1.50156 10.9422,8.220312 0.0703,0.05156 0.13281,0.09062 -24.35468,0 z m -62.55938,-0.765624 -0.85156,-0.85 0,-5.5 0.85156,-0.85 2.60781,0 0.85,0.85 0,5.5 -0.85,0.85 -2.60781,0 z m 43.2,0 -0.85157,-0.85 0,-5.5 0.85157,-0.85 2.60781,0 0.85,0.85 0,5.5 -0.85,0.85 -2.60781,0 z m 7.2,0 -0.85157,-0.85 0,-5.5 0.85157,-0.85 2.60781,0 0.85,0.85 0,5.5 -0.85,0.85 -2.60781,0 z m 7.2,0 -0.85157,-0.85 0,-5.5 0.85157,-0.85 2.60781,0 0.85,0.85 0,5.5 -0.85,0.85 -2.60781,0 z m -92.29688,-3.060936 c 0.29745,0 0.53907,-0.241608 0.53907,-0.539064 0,-0.297448 -0.24162,-0.539064 -0.53907,-0.539064 -0.29745,0 -0.53906,0.241616 -0.53906,0.539064 0,0.297456 0.24161,0.539064 0.53906,0.539064 z m 7.2,0 c 0.29746,0 0.53907,-0.241608 0.53907,-0.539064 0,-0.297448 -0.24161,-0.539064 -0.53907,-0.539064 -0.29745,0 -0.53906,0.241616 -0.53906,0.539064 0,0.297456 0.24161,0.539064 0.53906,0.539064 z m 7.2,0 c 0.29745,0 0.53907,-0.241608 0.53907,-0.539064 0,-0.297448 -0.24162,-0.539064 -0.53907,-0.539064 -0.29746,0 -0.53906,0.241616 -0.53906,0.539064 0,0.297456 0.2416,0.539064 0.53906,0.539064 z m 7.2,0 c 0.29745,0 0.53907,-0.241608 0.53907,-0.539064 0,-0.297448 -0.24162,-0.539064 -0.53907,-0.539064 -0.29745,0 -0.53906,0.241616 -0.53906,0.539064 0,0.297456 0.24161,0.539064 0.53906,0.539064 z m 7.2,0 c 0.29745,0 0.53907,-0.241608 0.53907,-0.539064 0,-0.297448 -0.24162,-0.539064 -0.53907,-0.539064 -0.29745,0 -0.53906,0.241616 -0.53906,0.539064 0,0.297456 0.24161,0.539064 0.53906,0.539064 z m 7.2,0 c 0.29745,0 0.53907,-0.241608 0.53907,-0.539064 0,-0.297448 -0.24162,-0.539064 -0.53907,-0.539064 -0.29745,0 -0.53906,0.241616 -0.53906,0.539064 0,0.297456 0.24161,0.539064 0.53906,0.539064 z m 7.2,0 c 0.29745,0 0.53907,-0.241608 0.53907,-0.539064 0,-0.297448 -0.24162,-0.539064 -0.53907,-0.539064 -0.29745,0 -0.53906,0.241616 -0.53906,0.539064 0,0.297456 0.24161,0.539064 0.53906,0.539064 z m 7.2,0 c 0.29745,0 0.53907,-0.241608 0.53907,-0.539064 0,-0.297448 -0.24162,-0.539064 -0.53907,-0.539064 -0.29745,0 -0.53906,0.241616 -0.53906,0.539064 0,0.297456 0.24161,0.539064 0.53906,0.539064 z m 7.2,0 c 0.29745,0 0.53907,-0.241608 0.53907,-0.539064 0,-0.297448 -0.24162,-0.539064 -0.53907,-0.539064 -0.29745,0 -0.53906,0.241616 -0.53906,0.539064 0,0.297456 0.24161,0.539064 0.53906,0.539064 z m 7.2,0 c 0.29745,0 0.53907,-0.241608 0.53907,-0.539064 0,-0.297448 -0.24162,-0.539064 -0.53907,-0.539064 -0.29745,0 -0.53906,0.241616 -0.53906,0.539064 0,0.297456 0.24161,0.539064 0.53906,0.539064 z m 7.2,0 c 0.29746,0 0.53906,-0.241608 0.53906,-0.539064 0,-0.297448 -0.2416,-0.539064 -0.53906,-0.539064 -0.29745,0 -0.53906,0.241616 -0.53906,0.539064 0,0.297456 0.24161,0.539064 0.53906,0.539064 z m 7.2,0 c 0.29746,0 0.53906,-0.241608 0.53906,-0.539064 0,-0.297448 -0.2416,-0.539064 -0.53906,-0.539064 -0.29745,0 -0.53906,0.241616 -0.53906,0.539064 0,0.297456 0.24161,0.539064 0.53906,0.539064 z m 7.2,0 c 0.29746,0 0.53906,-0.241608 0.53906,-0.539064 0,-0.297448 -0.2416,-0.539064 -0.53906,-0.539064 -0.29745,0 -0.53906,0.241616 -0.53906,0.539064 0,0.297456 0.24161,0.539064 0.53906,0.539064 z m 7.2,0 c 0.29746,0 0.53906,-0.241608 0.53906,-0.539064 0,-0.297448 -0.2416,-0.539064 -0.53906,-0.539064 -0.29745,0 -0.53906,0.241616 -0.53906,0.539064 0,0.297456 0.24161,0.539064 0.53906,0.539064 z m 61.92657,-6.929688 0,-0.809376 -2.90938,0 -0.85,-0.85 0,-1.525 -1.68906,0 0,-2.27812 1.68906,0 0,-1.582816 0.85,-0.85 2.90938,0 0,-3.010936 2.27812,0 0,3.010936 3.03281,0 0.85156,0.85 0,1.582816 2.02032,0 0,2.27812 -2.02032,0 0,1.525 -0.85156,0.85 -3.03281,0 0,0.809376 -2.27812,0 z m -12.97188,-4.012496 c 0.18786,0 0.34062,-0.152768 0.34062,-0.340632 0,-0.187856 -0.15276,-0.339056 -0.34062,-0.339056 -0.18786,0 -0.34063,0.1512 -0.34063,0.339056 0,0.187864 0.15277,0.340632 0.34063,0.340632 z m 14.17344,0 c 0.18785,0 0.34062,-0.152768 0.34062,-0.340632 0,-0.187856 -0.15277,-0.339056 -0.34062,-0.339056 -0.18787,0 -0.34063,0.1512 -0.34063,0.339056 0,0.187864 0.15276,0.340632 0.34063,0.340632 z m -157.975,-7.59688 -0.85,-0.85 0,-5.5 0.85,-0.85 2.60781,0 0.85,0.85 0,5.5 -0.85,0.85 -2.60781,0 z m 7.14375,0 -0.85156,-0.85 0,-5.5 0.85156,-0.85 2.60781,0 0.85,0.85 0,5.5 -0.85,0.85 -2.60781,0 z m 7.2,0 -0.85156,-0.85 0,-5.5 0.85156,-0.85 2.60781,0 0.85,0.85 0,5.5 -0.85,0.85 -2.60781,0 z m 7.2,0 -0.85156,-0.85 0,-5.5 0.85156,-0.85 2.60781,0 0.85,0.85 0,5.5 -0.85,0.85 -2.60781,0 z m 7.2,0 -0.85156,-0.85 0,-5.5 0.85156,-0.85 2.60781,0 0.85,0.85 0,5.5 -0.85,0.85 -2.60781,0 z m 7.2,0 -0.85156,-0.85 0,-5.5 0.85156,-0.85 2.60781,0 0.85,0.85 0,5.5 -0.85,0.85 -2.60781,0 z m 7.2,0 -0.85156,-0.85 0,-5.5 0.85156,-0.85 2.60781,0 0.85,0.85 0,5.5 -0.85,0.85 -2.60781,0 z m 7.2,0 -0.85156,-0.85 0,-5.5 0.85156,-0.85 2.60781,0 0.85,0.85 0,5.5 -0.85,0.85 -2.60781,0 z m 7.2,0 -0.85156,-0.85 0,-5.5 0.85156,-0.85 2.60781,0 0.85,0.85 0,5.5 -0.85,0.85 -2.60781,0 z m 7.2,0 -0.85156,-0.85 0,-5.5 0.85156,-0.85 2.60781,0 0.85,0.85 0,5.5 -0.85,0.85 -2.60781,0 z m 7.2,0 -0.85157,-0.85 0,-5.5 0.85157,-0.85 2.60781,0 0.85,0.85 0,5.5 -0.85,0.85 -2.60781,0 z m 7.2,0 -0.85157,-0.85 0,-5.5 0.85157,-0.85 2.60781,0 0.85,0.85 0,5.5 -0.85,0.85 -2.60781,0 z m 7.2,0 -0.85157,-0.85 0,-5.5 0.85157,-0.85 2.60781,0 0.85,0.85 0,5.5 -0.85,0.85 -2.60781,0 z m 7.2,0 -0.85157,-0.85 0,-5.5 0.85157,-0.85 2.60781,0 0.85,0.85 0,5.5 -0.85,0.85 -2.60781,0 z m -92.24063,-3.060936 c 0.29745,0 0.53907,-0.241608 0.53907,-0.539064 0,-0.297448 -0.24162,-0.539064 -0.53907,-0.539064 -0.29745,0 -0.5375,0.241616 -0.5375,0.539064 0,0.297456 0.24005,0.539064 0.5375,0.539064 z m 7.14375,0 c 0.29746,0 0.53907,-0.241608 0.53907,-0.539064 0,-0.297448 -0.24161,-0.539064 -0.53907,-0.539064 -0.29745,0 -0.53906,0.241616 -0.53906,0.539064 0,0.297456 0.24161,0.539064 0.53906,0.539064 z m 7.2,0 c 0.29745,0 0.53907,-0.241608 0.53907,-0.539064 0,-0.297448 -0.24162,-0.539064 -0.53907,-0.539064 -0.29746,0 -0.53906,0.241616 -0.53906,0.539064 0,0.297456 0.2416,0.539064 0.53906,0.539064 z m 7.2,0 c 0.29745,0 0.53907,-0.241608 0.53907,-0.539064 0,-0.297448 -0.24162,-0.539064 -0.53907,-0.539064 -0.29745,0 -0.53906,0.241616 -0.53906,0.539064 0,0.297456 0.24161,0.539064 0.53906,0.539064 z m 7.2,0 c 0.29745,0 0.53907,-0.241608 0.53907,-0.539064 0,-0.297448 -0.24162,-0.539064 -0.53907,-0.539064 -0.29745,0 -0.53906,0.241616 -0.53906,0.539064 0,0.297456 0.24161,0.539064 0.53906,0.539064 z m 7.2,0 c 0.29745,0 0.53907,-0.241608 0.53907,-0.539064 0,-0.297448 -0.24162,-0.539064 -0.53907,-0.539064 -0.29745,0 -0.53906,0.241616 -0.53906,0.539064 0,0.297456 0.24161,0.539064 0.53906,0.539064 z m 7.2,0 c 0.29745,0 0.53907,-0.241608 0.53907,-0.539064 0,-0.297448 -0.24162,-0.539064 -0.53907,-0.539064 -0.29745,0 -0.53906,0.241616 -0.53906,0.539064 0,0.297456 0.24161,0.539064 0.53906,0.539064 z m 7.2,0 c 0.29745,0 0.53907,-0.241608 0.53907,-0.539064 0,-0.297448 -0.24162,-0.539064 -0.53907,-0.539064 -0.29745,0 -0.53906,0.241616 -0.53906,0.539064 0,0.297456 0.24161,0.539064 0.53906,0.539064 z m 7.2,0 c 0.29745,0 0.53907,-0.241608 0.53907,-0.539064 0,-0.297448 -0.24162,-0.539064 -0.53907,-0.539064 -0.29745,0 -0.53906,0.241616 -0.53906,0.539064 0,0.297456 0.24161,0.539064 0.53906,0.539064 z m 7.2,0 c 0.29745,0 0.53907,-0.241608 0.53907,-0.539064 0,-0.297448 -0.24162,-0.539064 -0.53907,-0.539064 -0.29745,0 -0.53906,0.241616 -0.53906,0.539064 0,0.297456 0.24161,0.539064 0.53906,0.539064 z m 7.2,0 c 0.29746,0 0.53906,-0.241608 0.53906,-0.539064 0,-0.297448 -0.2416,-0.539064 -0.53906,-0.539064 -0.29745,0 -0.53906,0.241616 -0.53906,0.539064 0,0.297456 0.24161,0.539064 0.53906,0.539064 z m 7.2,0 c 0.29746,0 0.53906,-0.241608 0.53906,-0.539064 0,-0.297448 -0.2416,-0.539064 -0.53906,-0.539064 -0.29745,0 -0.53906,0.241616 -0.53906,0.539064 0,0.297456 0.24161,0.539064 0.53906,0.539064 z m 7.2,0 c 0.29746,0 0.53906,-0.241608 0.53906,-0.539064 0,-0.297448 -0.2416,-0.539064 -0.53906,-0.539064 -0.29745,0 -0.53906,0.241616 -0.53906,0.539064 0,0.297456 0.24161,0.539064 0.53906,0.539064 z m 7.2,0 c 0.29746,0 0.53906,-0.241608 0.53906,-0.539064 0,-0.297448 -0.2416,-0.539064 -0.53906,-0.539064 -0.29745,0 -0.53906,0.241616 -0.53906,0.539064 0,0.297456 0.24161,0.539064 0.53906,0.539064 z"
         id="path4376"
         inkscape:connector-curvature="0" /></g></g></svg>