<?xml version="1.0" encoding="UTF-8" standalone="no"?>
<svg
   xmlns:dc="http://purl.org/dc/elements/1.1/"
   xmlns:cc="http://creativecommons.org/ns#"
   xmlns:rdf="http://www.w3.org/1999/02/22-rdf-syntax-ns#"
   xmlns:svg="http://www.w3.org/2000/svg"
   xmlns="http://www.w3.org/2000/svg"
   xmlns:sodipodi="http://sodipodi.sourceforge.net/DTD/sodipodi-0.dtd"
   xmlns:inkscape="http://www.inkscape.org/namespaces/inkscape"
   width="48.330563mm"
   height="75.494438mm"
   viewBox="0 0 137.00001 213.99998"
   version="1.1"
   id="svg3496"
   inkscape:version="0.91 r13725"
   sodipodi:docname="PCB laser.svg">
  <metadata
     id="metadata3505">
    <rdf:RDF>
      <cc:Work
         rdf:about="">
        <dc:format>image/svg+xml</dc:format>
        <dc:type
           rdf:resource="http://purl.org/dc/dcmitype/StillImage" />
        <dc:title />
      </cc:Work>
    </rdf:RDF>
  </metadata>
  <defs
     id="defs3503" />
  <sodipodi:namedview
     pagecolor="#ffffff"
     bordercolor="#666666"
     borderopacity="1"
     objecttolerance="10"
     gridtolerance="10"
     guidetolerance="10"
     inkscape:pageopacity="0"
     inkscape:pageshadow="2"
     inkscape:window-width="1327"
     inkscape:window-height="744"
     id="namedview3501"
     showgrid="false"
     units="mm"
     inkscape:zoom="2.0938694"
     inkscape:cx="85.421177"
     inkscape:cy="135.53045"
     inkscape:window-x="39"
     inkscape:window-y="24"
     inkscape:window-maximized="1"
     inkscape:current-layer="svg3496"
     showguides="true"
     inkscape:guide-bbox="true">
    <sodipodi:guide
       position="60.626004,110.63478"
       orientation="0,1"
       id="guide4173" />
  </sodipodi:namedview>
  <rect
     style="fill:#008000;fill-opacity:1;stroke:none;stroke-width:0.72992128;stroke-miterlimit:10;stroke-dasharray:none;stroke-opacity:1"
     id="rect3678"
     width="136.91623"
     height="214.11497"
     x="0.041891098"
     y="-0.057491802"
     rx="0.58973366"
     ry="0.7666536" />
  <path
     id="path3666"
     style="fill:#000000;fill-opacity:1;fill-rule:evenodd;stroke:none"
     d="m 26.615046,145.14319 c 0,0.50389 0.406247,0.91014 0.906244,0.91014 0.499996,0 0.91015,-0.40625 0.91015,-0.91014 0,-0.5 -0.410154,-0.90625 -0.91015,-0.90625 -0.499997,0 -0.906244,0.40625 -0.906244,0.90625 z m -14.398333,0 c 0,0.50389 0.406247,0.91014 0.906243,0.91014 0.499997,0 0.910151,-0.40625 0.910151,-0.91014 0,-0.5 -0.410154,-0.90625 -0.910151,-0.90625 -0.499996,0 -0.906243,0.40625 -0.906243,0.90625 z m 32.597426,-29.7615 c 0,0.50389 0.406247,0.91014 0.906243,0.91014 0.499997,0 0.910151,-0.40625 0.910151,-0.91014 0,-0.5 -0.410154,-0.90625 -0.910151,-0.90625 -0.499996,0 -0.906243,0.40625 -0.906243,0.90625 z m 14.398327,6.6e-4 c 0,0.50389 0.406247,0.91014 0.906244,0.91014 0.499996,0 0.91015,-0.40625 0.91015,-0.91014 0,-0.5 -0.410154,-0.90625 -0.91015,-0.90625 -0.499997,0 -0.906244,0.40625 -0.906244,0.90625 z M 115.87885,42.643788 c 0,0.503902 0.40625,0.910149 0.90625,0.910149 0.49999,0 0.91015,-0.406247 0.91015,-0.910149 0,-0.499997 -0.41016,-0.906244 -0.91015,-0.906244 -0.5,0 -0.90625,0.406247 -0.90625,0.906244 z m 0,14.173728 c 0,0.503902 0.40625,0.910149 0.90625,0.910149 0.49999,0 0.91015,-0.406247 0.91015,-0.910149 0,-0.499997 -0.41016,-0.906244 -0.91015,-0.906244 -0.5,0 -0.90625,0.406247 -0.90625,0.906244 z m 6.74816,-40.650678 6.546,0 c 0.32671,0 0.58972,0.341925 0.58972,0.766648 l 0,6.545994 c 0,0.424723 -0.26301,0.766647 -0.58972,0.766647 l -6.546,0 c -0.3267,0 -0.58972,-0.341924 -0.58972,-0.766647 l 0,-6.545994 c 0,-0.424723 0.26302,-0.766648 0.58972,-0.766648 z m 3.62601,181.192782 c 0,0.29687 0.24218,0.53905 0.53905,0.53905 0.29687,0 0.53906,-0.24218 0.53906,-0.53905 0,-0.29688 -0.24219,-0.53907 -0.53906,-0.53907 -0.29687,0 -0.53905,0.24219 -0.53905,0.53907 z m 0,-7.19917 c 0,0.29687 0.24218,0.53905 0.53905,0.53905 0.29687,0 0.53906,-0.24218 0.53906,-0.53905 0,-0.29688 -0.24219,-0.53906 -0.53906,-0.53906 -0.29687,0 -0.53905,0.24218 -0.53905,0.53906 z m 0,-7.19917 c 0,0.29688 0.24218,0.53906 0.53905,0.53906 0.29687,0 0.53906,-0.24218 0.53906,-0.53906 0,-0.30078 -0.24219,-0.53906 -0.53906,-0.53906 -0.29687,0 -0.53905,0.23828 -0.53905,0.53906 z m 0,-7.20307 c 0,0.30078 0.24218,0.53906 0.53905,0.53906 0.29687,0 0.53906,-0.23828 0.53906,-0.53906 0,-0.29688 -0.24219,-0.53907 -0.53906,-0.53907 -0.29687,0 -0.53905,0.24219 -0.53905,0.53907 z m 0,-7.19917 c 0,0.29687 0.24218,0.53906 0.53905,0.53906 0.29687,0 0.53906,-0.24219 0.53906,-0.53906 0,-0.29688 -0.24219,-0.53907 -0.53906,-0.53907 -0.29687,0 -0.53905,0.24219 -0.53905,0.53907 z m 0,-7.19917 c 0,0.29687 0.24218,0.53906 0.53905,0.53906 0.29687,0 0.53906,-0.24219 0.53906,-0.53906 0,-0.29688 -0.24219,-0.53905 -0.53906,-0.53905 -0.29687,0 -0.53905,0.24217 -0.53905,0.53905 z m -2.07734,-24.52639 c -0.612,-1e-5 -1.10468,0.42697 -1.10468,0.95782 l 0,3.98434 c 0,0.53086 0.40491,0.96587 1.10468,0.9578 l 0.15782,0 0,1.30156 -0.15782,0 c -0.51628,0 -0.94486,0.30491 -1.06717,0.71875 l -7.6937,0 0.009,0.011 -2.79374,7.27495 -3.6734,0 c -0.0866,-0.45483 -0.53776,-0.8 -1.08749,-0.8 l -5.23746,0 c -0.61203,0 -1.10469,0.42695 -1.10469,0.95781 l 0,0.25494 -33.582578,0 -0.0078,0.0156 -1.179678,0.49687 -5.359338,5.89814 -0.315623,1.01249 0.01875,7.03902 -4.656217,4.14397 -3.8031,0 0,-0.194 c 0,-0.53086 -0.492654,-0.95781 -1.104679,-0.95781 l -5.237464,0 c -0.612025,0 -1.104679,0.42695 -1.104679,0.95781 l 0,3.98435 c 0,0.53085 0.492654,0.95936 1.104679,0.95936 l 0.657415,0 0.0125,3.48903 -3.919755,4.77016 -26.012061,0 0,-2.29581 -7.4272987,0 0,6.86036 8.3414767,0 0,7.93536 -0.801163,0 -0.851556,0.85156 0,4.02667 0.851556,0.84686 6.066888,0 0.846868,-0.84686 0,-4.02667 -0.846868,-0.85156 -0.888663,0 0,-7.93536 21.573681,0 0.979681,-0.53906 5.412979,-7.38939 0.531246,-0.80157 0.0062,-4.09372 0.704288,0 c 0.612026,0 1.10468,-0.42851 1.10468,-0.95936 l 0,-0.37995 5.220413,0 1.070304,-0.35469 5.984076,-5.38745 0.348434,-0.95624 -0.01875,-7.0359 4.787467,-4.87028 31.49366,0 0,0.31745 c 0,0.53085 0.49266,0.95781 1.10469,0.95781 l 5.23745,0 c 0.48103,0 0.88518,-0.26532 1.0375,-0.63593 l 8.54212,0 2.60467,-7.28745 3.05467,0 c 0.12231,0.4138 0.55089,0.71874 1.06717,0.71874 l 5.23748,0 c 0.61202,0 1.10468,-0.42696 1.10468,-0.95781 l 0,-3.98434 c 0,-0.53086 -0.24408,-0.92965 -1.10468,-0.95781 l -0.15782,0 0,-1.30156 0.15782,0 c 0.61202,0 1.10468,-0.42694 1.10468,-0.9578 l 0,-3.98434 c 0,-0.53085 -0.49266,-0.95782 -1.10468,-0.95782 z m 0,35.97632 5.23669,0 c 0.61202,0 1.10474,0.42737 1.10474,0.95823 l 0,3.98429 c 0,0.53085 -0.49272,0.95822 -1.10474,0.95822 l -5.23669,0 c -0.61202,0 -1.10474,-0.42737 -1.10474,-0.95822 l 0,-3.98429 c 0,-0.53086 0.49272,-0.95823 1.10474,-0.95823 z m 0,7.19916 5.23669,0 c 0.61202,0 1.10474,0.42737 1.10474,0.95822 l 0,3.98429 c 0,0.53085 -0.49272,0.95823 -1.10474,0.95823 l -5.23669,0 c -0.61202,0 -1.10474,-0.42738 -1.10474,-0.95823 l 0,-3.98429 c 0,-0.53085 0.49272,-0.95822 1.10474,-0.95822 z m 0,7.19916 5.23669,0 c 0.61202,0 1.10474,0.42738 1.10474,0.95823 l 0,3.98428 c 0,0.53086 -0.49272,0.95824 -1.10474,0.95824 l -5.23669,0 c -0.61202,0 -1.10474,-0.42738 -1.10474,-0.95824 l 0,-3.98428 c 0,-0.53085 0.49272,-0.95823 1.10474,-0.95823 z m 0,7.20113 5.23669,0 c 0.61202,0 1.10474,0.42737 1.10474,0.95822 l 0,3.98428 c 0,0.53086 -0.49272,0.95824 -1.10474,0.95824 l -5.23669,0 c -0.61202,0 -1.10474,-0.42738 -1.10474,-0.95824 l 0,-3.98428 c 0,-0.53085 0.49272,-0.95822 1.10474,-0.95822 z M 18.667045,15.932648 c -1.287806,0.0019 -2.505339,0.58744 -3.310914,1.592177 l -1.851549,-0.02031 -10.6371682,11.73273 -0.028125,40.885135 4.8247081,3.559607 2.5890449,0.0062 0,0.375256 c 0,0.530858 0.492654,0.957806 1.10468,0.957806 l 5.237464,0 c 0.612025,0 1.104679,-0.426948 1.104679,-0.957806 l 0,-3.984347 c 0,-0.530858 -0.492654,-0.957805 -1.104679,-0.957805 l -5.237464,0 c -0.612026,0 -1.10468,0.426947 -1.10468,0.957805 l 0,0.344007 -1.3624912,0.01094 -3.486565,-2.440866 0,-36.666021 9.0177772,-10.105526 0.126561,0 c 0.474611,1.888538 2.171461,3.213317 4.118721,3.215602 2.348575,6.4e-4 4.252872,-1.902958 4.253096,-4.251532 6.4e-4,-2.349184 -1.90391,-4.253735 -4.253096,-4.253096 z m 7.089013,71.188563 c -0.612024,0 -1.104679,0.426949 -1.104679,0.957809 l 0,0.433069 -3.43162,0 0,0.008 -0.976555,0.960929 0.0047,2.542174 -2.548026,0 0,-0.344006 c 0,-0.53086 -0.492654,-0.959369 -1.10468,-0.959369 l -5.237463,0 c -0.612027,0 -1.10468,0.428509 -1.10468,0.959369 l 0,3.984341 c 0,0.530861 0.492653,0.95781 1.10468,0.95781 l 5.237463,0 c 0.612026,0 1.10468,-0.426949 1.10468,-0.95781 l 0,-0.369005 4.382782,0 1.148429,-1.023425 0,-2.468735 1.420303,0 0,0.26119 c 0,0.53086 0.492654,0.957809 1.104679,0.957809 l 5.237464,0 c 0.612026,0 1.10468,-0.426949 1.10468,-0.957809 l 0,-3.98434 c 0,-0.53086 -0.492654,-0.957809 -1.10468,-0.957809 z M 23.317013,31.40754 c -0.326709,0 -0.59062,0.340897 -0.59062,0.76562 l 0,1.643738 -2.784357,0 -7.634321,7.629634 0,13.278032 -0.949993,0 c -0.612027,0 -1.10468,0.426947 -1.10468,0.957806 l 0,3.984346 c 0,0.530859 0.492653,0.957807 1.10468,0.957807 l 5.237463,0 c 0.612026,0 1.10468,-0.426948 1.10468,-0.957807 l 0,-3.984346 c 0,-0.530859 -0.492654,-0.957806 -1.10468,-0.957806 l -1.012493,0 0,-12.368663 5.335901,-5.253088 1.8078,-0.0016 0,1.618739 c 0,0.424722 0.263911,0.76562 0.59062,0.76562 l 6.545267,0 c 0.32671,0 0.590621,-0.340898 0.590621,-0.76562 l 0,-6.546829 c 0,-0.424723 -0.263911,-0.76562 -0.590621,-0.76562 l -6.545267,0 z m 41.579399,-2.154673 -4.917153,5.317152 c -0.37208,-0.105948 -0.756878,-0.160619 -1.143742,-0.1625 -2.347965,2.24e-4 -4.251309,1.903568 -4.251533,4.251533 0.0016,1.509933 0.803903,2.905742 2.107797,3.667162 l -0.0094,4.012472 0.06719,7.685883 0.01563,22.352967 -8.918688,7.099948 -2.234359,0 c -0.755131,-1.325206 -2.162226,-2.144417 -3.687474,-2.146856 -2.347962,2.24e-4 -4.251308,1.90357 -4.251533,4.251529 0.0011,1.385127 0.676796,2.68291 1.810924,3.478104 l 0,4.954654 c -0.07203,1.1232 -0.514802,1.465614 -1.621863,1.465614 l -5.764023,0 0,-0.201559 c 0,-0.53086 -0.492654,-0.959369 -1.104679,-0.959369 l -5.237465,0 c -0.612024,0 -1.104679,0.428509 -1.104679,0.959369 l 0,3.98278 c 0,0.53086 0.492655,0.95937 1.104679,0.95937 l 5.237465,0 c 0.612025,0 1.104679,-0.42851 1.104679,-0.95937 l 0,-0.256246 2.340609,0 0,13.862396 -15.301456,0.0391 -7.924945,8.32338 0,19.16706 -1.3609282,0 c -0.3267097,0 -0.5890584,0.34089 -0.5890584,0.76561 l 0,7.96402 c 0,0.42471 0.2623487,0.76718 0.5890584,0.76718 l 1.3609282,0 0,16.90769 -1.6015513,0 0,6.85932 7.4265113,0.002 0,-6.85932 -1.867175,0 0,-16.90925 1.228116,0 c 0.32671,0 0.589059,-0.34247 0.589059,-0.76718 l 0,-7.96402 c 0,-0.42472 -0.262349,-0.76561 -0.589059,-0.76561 l -1.228116,0 0,-16.17021 6.067145,-6.25463 20.942042,0.0125 0,1.5078 0.851556,0.85156 5.382776,0 0.851556,-0.85156 0,-8.21869 -0.851556,-0.85156 -5.382776,0 -0.851556,0.85156 0,1.57498 -3.646849,0.0156 0,-13.859276 3.737474,0 1.362491,-1.304679 0,-1.653116 -0.0031,0 0,-6.576515 c 0.764347,-0.33511 1.413169,-0.887754 1.865613,-1.589053 l 3.853098,0 17.351441,-13.428028 -0.05156,-20.695167 -0.0125,-14.749897 8.051506,-6.38433 28.023241,-0.0125 4.55778,4.903091 0.0578,18.420183 2.48904,3.5156 3.42811,0.01563 0,1.464052 0.84842,0.851556 5.38592,0 0.85155,-0.851556 0,-8.221816 -0.85155,-0.848432 -5.38592,0 -0.84842,0.848432 0,1.593737 -2.51717,0.03125 -0.6875,-0.737495 0.008,-18.718619 -5.32339,-5.579648 -39.826288,-0.04531 z M 12.413976,184.9144 c 0,0.50389 0.410154,0.91014 0.910151,0.91014 0.499996,0 0.906244,-0.40625 0.906244,-0.91014 0,-0.5 -0.406248,-0.90625 -0.906244,-0.90625 -0.499997,0 -0.910151,0.40625 -0.910151,0.90625 z m 0,-7.19917 c 0,0.49999 0.410154,0.91014 0.910151,0.91014 0.499996,0 0.906244,-0.41015 0.906244,-0.91014 0,-0.5 -0.406248,-0.90625 -0.906244,-0.90625 -0.499997,0 -0.910151,0.40625 -0.910151,0.90625 z m 0,-7.19917 c 0,0.49999 0.410154,0.90624 0.910151,0.90624 0.499996,0 0.906244,-0.40625 0.906244,-0.90624 0,-0.5 -0.406248,-0.90625 -0.906244,-0.90625 -0.499997,0 -0.910151,0.40625 -0.910151,0.90625 z m 1.023429,-69.64807 c 0,0.30078 0.238279,0.53905 0.539058,0.53905 0.296874,0 0.53906,-0.23827 0.53906,-0.53905 0,-0.29688 -0.242186,-0.53516 -0.53906,-0.53516 -0.300779,0 -0.539058,0.23828 -0.539058,0.53516 z m 0,-7.199172 c 0,0.296873 0.238279,0.539059 0.539058,0.539059 0.296874,0 0.53906,-0.242186 0.53906,-0.539059 0,-0.296872 -0.242186,-0.535153 -0.53906,-0.535153 -0.300779,0 -0.539058,0.238281 -0.539058,0.535153 z m 0,-7.199168 c 0,0.296873 0.238279,0.539058 0.539058,0.539058 0.296874,0 0.53906,-0.242185 0.53906,-0.539058 0,-0.296873 -0.242186,-0.539058 -0.53906,-0.539058 -0.300779,0 -0.539058,0.242185 -0.539058,0.539058 z m 0,-7.199168 c 0,0.296873 0.238279,0.539059 0.539058,0.539059 0.296874,0 0.53906,-0.242186 0.53906,-0.539059 0,-0.296873 -0.242186,-0.539058 -0.53906,-0.539058 -0.300779,0 -0.539058,0.242185 -0.539058,0.539058 z m 0,-7.199168 c 0,0.296874 0.238279,0.539059 0.539058,0.539059 0.296874,0 0.53906,-0.242185 0.53906,-0.539059 0,-0.300779 -0.242186,-0.539058 -0.53906,-0.539058 -0.300779,0 -0.539058,0.238279 -0.539058,0.539058 z m 0,-7.203073 c 0,0.300779 0.238279,0.539058 0.539058,0.539058 0.296874,0 0.53906,-0.238279 0.53906,-0.539058 0,-0.296874 -0.242186,-0.535154 -0.53906,-0.535154 -0.300779,0 -0.539058,0.23828 -0.539058,0.535154 z m 0,-7.199168 c 0,0.296872 0.238279,0.539058 0.539058,0.539058 0.296874,0 0.53906,-0.242186 0.53906,-0.539058 0,-0.277343 -0.214843,-0.496091 -0.484372,-0.527341 l -0.109374,0 c -0.273435,0.03125 -0.484372,0.249998 -0.484372,0.527341 z m 1.7578,-47.150304 1.984362,1.984361 0.25781,0 0,-0.757807 c -0.652339,-0.28906 -1.171867,-0.812495 -1.460928,-1.460927 l -0.781244,0 z m 0,-2.515607 0.769526,0 c 0.285154,-0.6640583 0.812495,-1.1953045 1.472646,-1.4882705 l 0,-0.7851504 -0.25781,0 -1.984362,1.98436 z m 2.49217,12.152112 c 0,0.499997 0.406247,0.906244 0.906244,0.906244 0.503902,0 0.910149,-0.406247 0.910149,-0.906244 0,-0.499996 -0.406247,-0.906243 -0.910149,-0.906243 -0.499997,0 -0.906244,0.406247 -0.906244,0.906243 z m 0,-11.0232139 c 0,0.4999964 0.406247,0.9062439 0.906244,0.9062439 0.503902,0 0.910149,-0.4062475 0.910149,-0.9062439 0,-0.4999965 -0.406247,-0.9101496 -0.910149,-0.9101496 -0.499997,0 -0.906244,0.4101531 -0.906244,0.9101496 z M 19.644392,199.57393 c 0,0.29687 0.242187,0.53516 0.53906,0.53516 0.296872,0 0.539058,-0.23829 0.539058,-0.53516 0,-0.30078 -0.242186,-0.53905 -0.539058,-0.53905 -0.296873,0 -0.53906,0.23827 -0.53906,0.53905 z m 0.07031,-187.0708 0.269529,0 1.984361,-1.984361 0,-0.234373 -0.757807,0 c -0.292967,0.664058 -0.82812,1.195305 -1.496083,1.480459 z m 0,-6.0077703 c 0.679682,0.2890609 1.222647,0.8320261 1.511707,1.5078023 l 0.742183,0 0,-0.2890609 -1.984361,-1.98436 -0.269529,0 z M 41.924697,44.763697 c -2.347964,2.24e-4 -4.251309,1.903568 -4.251533,4.251532 3.25e-4,1.696704 1.009342,3.230803 2.567169,3.903097 l 0,2.346859 -5.760897,4.647753 -2.381234,0 0,-0.633719 c 0,-0.530858 -0.492654,-0.959367 -1.104679,-0.959367 l -5.237465,0 c -0.612024,0 -1.104679,0.428509 -1.104679,0.959367 l 0,3.982785 c 0,0.530858 0.492655,0.959368 1.104679,0.959368 l 5.237465,0 c 0.612025,0 1.104679,-0.42851 1.104679,-0.959368 l 0,-0.65403 7.815571,0.03125 3.967159,-3.841249 0,-6.009334 c 1.409596,-0.730618 2.294709,-2.18572 2.295297,-3.77341 -2.24e-4,-2.347964 -1.903569,-4.251309 -4.251532,-4.251533 z M 31.932579,31.40754 c -0.326711,0 -0.589058,0.340897 -0.589058,0.76562 l 0,6.546829 c 0,0.424722 0.262347,0.76562 0.589058,0.76562 l 1.276554,0 0,1.760924 -5.295277,0 -1.192179,1.445302 -0.03125,0 0,8.42963 -0.93437,0 c -0.612024,0 -1.104679,0.426947 -1.104679,0.957805 l 0,3.984347 c 0,0.530858 0.492655,0.957806 1.104679,0.957806 l 5.237465,0 c 0.612025,0 1.104679,-0.426948 1.104679,-0.957806 l 0,-3.984347 c 0,-0.530858 -0.492654,-0.957805 -1.104679,-0.957805 l -0.946869,0 0,-7.368699 6.518705,0 0,-4.267157 1.914048,0 c 0.326711,0 0.58906,-0.340898 0.58906,-0.76562 l 0,-6.546829 c 0,-0.424723 -0.262349,-0.76562 -0.58906,-0.76562 l -6.546828,0 z M 24.8592,149.2584 l 1.593738,0 0,-0.51172 -0.234373,0 -0.84765,-0.85155 0,-1.78515 -0.511715,0 z m 0,-5.17575 0.511715,0 0,-1.68358 0.84765,-0.85156 0.234373,0 0,-0.51171 -1.593738,0 z M 25.681198,35.446572 c 0,0.499997 0.406247,0.906244 0.906243,0.906244 0.499997,0 0.91015,-0.406247 0.91015,-0.906244 0,-0.499996 -0.410153,-0.906243 -0.91015,-0.906243 -0.499996,0 -0.906243,0.406247 -0.906243,0.906243 z m 2.154544,69.022948 c 0,0.29688 0.242185,0.53906 0.539058,0.53906 0.296873,0 0.539058,-0.24218 0.539058,-0.53906 0,-0.29686 -0.242185,-0.53905 -0.539058,-0.53905 -0.296873,0 -0.539058,0.24219 -0.539058,0.53905 z m 0,-7.199165 c 0,0.296873 0.242185,0.539059 0.539058,0.539059 0.296873,0 0.539058,-0.242186 0.539058,-0.539059 0,-0.296873 -0.242185,-0.539058 -0.539058,-0.539058 -0.296873,0 -0.539058,0.242185 -0.539058,0.539058 z m 0,-7.199168 c 0,0.296874 0.242185,0.539059 0.539058,0.539059 0.296873,0 0.539058,-0.242185 0.539058,-0.539059 0,-0.300779 -0.242185,-0.539058 -0.539058,-0.539058 -0.296873,0 -0.539058,0.238279 -0.539058,0.539058 z m 0,-7.203073 c 0,0.300779 0.242185,0.539058 0.539058,0.539058 0.296873,0 0.539058,-0.238279 0.539058,-0.539058 0,-0.296874 -0.242185,-0.535154 -0.539058,-0.535154 -0.296873,0 -0.539058,0.23828 -0.539058,0.535154 z m 0,-7.199169 c 0,0.296873 0.242185,0.539059 0.539058,0.539059 0.296873,0 0.539058,-0.242186 0.539058,-0.539059 0,-0.296872 -0.242185,-0.535153 -0.539058,-0.535153 -0.296873,0 -0.539058,0.238281 -0.539058,0.535153 z m 0,-7.199168 c 0,0.296873 0.242185,0.539058 0.539058,0.539058 0.296873,0 0.539058,-0.242185 0.539058,-0.539058 0,-0.296873 -0.242185,-0.539058 -0.539058,-0.539058 -0.296873,0 -0.539058,0.242185 -0.539058,0.539058 z m 0,-7.199168 c 0,0.296873 0.242185,0.539059 0.539058,0.539059 0.296873,0 0.539058,-0.242186 0.539058,-0.539059 0,-0.296873 -0.242185,-0.539058 -0.539058,-0.539058 -0.296873,0 -0.539058,0.242185 -0.539058,0.539058 z m 0,-7.199168 c 0,0.296874 0.242185,0.539059 0.539058,0.539059 0.296873,0 0.539058,-0.242185 0.539058,-0.539059 0,-0.300779 -0.242185,-0.539058 -0.539058,-0.539058 -0.296873,0 -0.539058,0.238279 -0.539058,0.539058 z m 0.894524,95.186959 1.457021,0 0,-3.14842 -0.507809,0 0,1.78515 -0.851556,0.85155 -0.09766,0 z m 0,-7.71089 0.09766,0 0.851556,0.85156 0,1.68358 0.507809,0 0,-3.04685 -1.457021,0 z m 1.742175,61.25738 3.37107,0 0,-0.51172 -2.011705,0 -0.84765,-0.85155 0,-0.25 -0.511715,0 z m 0,-5.23366 0.511715,0 0,-0.15235 0.84765,-0.85156 2.011705,0 0,-0.51171 -3.37107,0 z M 34.29768,35.446572 c 0,0.499997 0.406247,0.906244 0.906243,0.906244 0.503904,0 0.910151,-0.406247 0.910151,-0.906244 0,-0.499996 -0.406247,-0.906243 -0.910151,-0.906243 -0.499996,0 -0.906243,0.406247 -0.906243,0.906243 z M 34.042727,199.57393 c 0,0.29687 0.242185,0.53516 0.539058,0.53516 0.296873,0 0.539059,-0.23829 0.539059,-0.53516 0,-0.30078 -0.242186,-0.53905 -0.539059,-0.53905 -0.296873,0 -0.539058,0.23827 -0.539058,0.53905 z m 1.29296,3.23096 3.3281,0 0,-1.61327 -0.480465,0 0,0.25 -0.851557,0.85155 -1.996078,0 z m 0,-6.23757 1.996078,0 0.851557,0.85156 0,0.15235 0.480465,0 0,-1.51562 -3.3281,0 z M 41.018715,85.582046 c 0,0.499997 0.402341,0.906244 0.906244,0.906244 0.499997,0 0.906244,-0.406247 0.906244,-0.906244 0,-0.499996 -0.406247,-0.906243 -0.906244,-0.906243 -0.503903,0 -0.906244,0.406247 -0.906244,0.906243 z m 3e-6,-36.55692 c 0,0.468746 0.355466,0.839838 0.812495,0.886712 l 0.183591,0 c 0.457028,-0.04687 0.816402,-0.417966 0.816402,-0.886712 0,-0.499997 -0.406247,-0.906244 -0.906244,-0.906244 -0.503903,0 -0.906244,0.406247 -0.906244,0.906244 z m 3.34425,-34.808872 1.984361,1.984361 0.281248,0 0,-0.777338 c -0.67187,-0.289061 -1.210929,-0.828119 -1.496084,-1.49999 l -0.769525,0 z m 0,-2.574201 0.785151,0 c 0.292966,-0.656245 0.820307,-1.183585 1.480458,-1.468739 l 0,-0.7499949 -0.281248,0 -1.984361,1.9843609 z M 102.6321,194.40965 c -0.61204,0 -1.10469,0.42695 -1.10469,0.9578 l 0,0.37813 -36.056002,0 3.89216,0.008 -7.47026,0 -1.503115,1.03749 0,2.33904 -1.134367,0.87344 -6.614017,0 0,-0.42344 c 0,-0.53085 -0.492654,-0.9578 -1.104679,-0.9578 l -5.237464,0 c -0.612026,0 -1.104679,0.42695 -1.104679,0.9578 l 0,3.98435 c 0,0.53085 0.492653,0.95937 1.104679,0.95937 l 5.237464,0 c 0.612025,0 1.104679,-1.49021 1.104679,-0.95937 l 0,-0.14531 10.010869,0 1.43124,-0.95156 0,-2.17185 1.171866,-1.13438 36.271626,0 0,0.19062 c 0,0.53087 0.49265,0.95782 1.10469,0.95782 l 5.23745,0 c 0.61202,0 1.10468,-0.42695 1.10468,-0.95782 l 0,-3.98434 c 0,-0.53085 -0.49355,-0.99088 -1.10468,-0.9578 l -5.23745,0 z M 46.655921,38.594988 c 0,0.499997 0.410153,0.906244 0.910149,0.906244 0.499997,0 0.906244,-0.406247 0.906244,-0.906244 0,-0.503902 -0.406247,-0.910149 -0.906244,-0.910149 -0.499996,0 -0.910149,0.406247 -0.910149,0.910149 z m 0.354508,-15.608563 c 0,0.499997 0.406247,0.906244 0.91015,0.906244 0.499996,0 0.906243,-0.406247 0.906243,-0.906244 0,-0.503902 -0.406247,-0.910149 -0.906243,-0.910149 -0.503903,0 -0.91015,0.406247 -0.91015,0.910149 z m -0.155291,-10.18813 c 0,0.499997 0.406247,0.906244 0.91015,0.906244 0.499996,0 0.906243,-0.406247 0.906243,-0.906244 0,-0.499996 -0.406247,-0.906243 -0.906243,-0.906243 -0.503903,0 -0.91015,0.406247 -0.91015,0.906243 z m 1.503896,188.842545 c 0,0.29687 0.242185,0.53905 0.539059,0.53905 0.296872,0 0.539058,-0.24218 0.539058,-0.53905 0,-0.29688 -0.242186,-0.53906 -0.539058,-0.53906 -0.296874,0 -0.539059,0.24218 -0.539059,0.53906 z m 0,-28.80058 c 0,0.29687 0.242185,0.53906 0.539059,0.53906 0.296872,0 0.539058,-0.24219 0.539058,-0.53906 0,-0.29688 -0.242186,-0.53906 -0.539058,-0.53906 -0.296874,0 -0.539059,0.24218 -0.539059,0.53906 z m 0.546871,-156.639645 0.246092,0 1.984361,-1.984361 0,-0.292967 -0.738276,0 c -0.289061,0.667965 -0.824213,1.207023 -1.492177,1.496084 z m 0,-6.023395 c 0.656245,0.285155 1.183585,0.812494 1.472645,1.464833 l 0.757808,0 0,-0.234373 -1.984361,-1.9843609 -0.246092,0 z m 9.08978,28.417768 c 0,0.499997 0.406247,0.906244 0.910149,0.906244 0.499997,0 0.906244,-0.406247 0.906244,-0.906244 0,-0.503902 -0.406247,-0.910149 -0.906244,-0.910149 -0.503902,0 -0.910149,0.406247 -0.910149,0.910149 z m 21.547501,-3.857526 -10.110868,7.734322 -0.01875,34.997933 4.234346,4.870279 0.07969,4.792151 -1.373429,0 c -0.326709,0 -0.589058,0.342461 -0.589058,0.767186 l 0,6.545267 c 0,0.424717 0.262349,0.767179 0.589058,0.767179 l 1.385928,0 0.0094,31.424781 -10.059305,10.15306 c -1.430646,0.72363 -2.33262,2.19047 -2.332796,3.79372 -6.36e-4,2.34918 1.903912,4.25373 4.253096,4.25309 2.348572,-2.3e-4 4.252169,-1.90452 4.251533,-4.25309 -0.0017,-1.29375 -0.592264,-2.51637 -1.604677,-3.32186 l 9.062437,-7.5187 0.143749,-34.531001 1.435928,0 c 0.32671,0 0.590621,-0.342462 0.590621,-0.767179 l 0,-6.545267 c 0,-0.424725 -0.263911,-0.767186 -0.590621,-0.767186 l -1.393741,0 -0.02344,-10.046803 -5.267151,-6.896826 0,-24.033038 11.110861,-8.518038 15.801706,0 2.832797,2.846856 -0.0469,44.241618 10.26531,9.326495 -0.0344,41.385649 -1.98437,2.61561 -1.18592,0 0,-0.25625 c 0,-0.53085 -0.49266,-0.95781 -1.10468,-0.95781 l -5.23747,0 c -0.61203,0 -1.10468,0.42696 -1.10468,0.95781 l 0,3.98434 c 0,0.53087 0.49265,0.95781 1.10468,0.95781 l 5.23747,0 c 0.61202,0 1.10468,-0.42694 1.10468,-0.95781 l 0,-0.31562 5.66089,0 2.52654,-3.12185 0.0313,-48.590282 -12.56084,-12.913975 -0.0469,-37.584504 -4.16091,-4.435254 z m 9.649934,5.060645 c -0.326709,0 -0.589059,0.340896 -0.589059,0.765619 l 0,1.310928 -1.385927,0.0063 -11.068676,8.826501 0,6.251519 c -1.352039,0.747936 -2.19192,2.17047 -2.193734,3.715598 -6.39e-4,2.349185 1.903912,4.253734 4.253096,4.253095 1.584079,-0.0017 3.035875,-0.883864 3.767158,-2.289047 l 4.882783,0.0094 6.918703,6.921827 -0.07031,55.215233 2.004666,2.31093 5.815599,0.0875 0,0.19843 c 0,0.53086 0.49264,0.95781 1.10468,0.95781 l 5.23745,0 c 0.61203,0 1.10468,-0.42695 1.10468,-0.95781 l 0,-3.98435 c 0,-0.53084 -0.49265,-0.95936 -1.10468,-0.95936 l -5.23745,0 c -0.4192,0 -0.92928,0.40249 -0.95626,1.07342 l -2.64841,-0.0188 -0.849994,-1.14374 0.05469,-58.499586 -4.887471,-5.089027 -11.351481,-0.02188 c -0.409909,-0.798275 -1.061832,-1.446363 -1.862491,-1.851549 l 0,-4.806217 7.967137,-6.287456 0.506245,-0.01406 0,1.331241 c 0,0.424723 0.26235,0.76562 0.589059,0.76562 l 6.545267,0 c 0.32671,0 0.59062,-0.340897 0.59062,-0.76562 l 0,-6.546829 c 0,-0.424723 -0.26391,-0.765619 -0.59062,-0.765619 l -6.545267,0 z m -11.892885,20.87485 c 0,0.503903 0.406247,0.91015 0.906244,0.91015 0.499996,0 0.910151,-0.406247 0.910151,-0.91015 0,-0.499996 -0.410155,-0.906243 -0.910151,-0.906243 -0.499997,0 -0.906244,0.406247 -0.906244,0.906243 z m 0.08094,-43.988519 c 0,0.499996 0.406247,0.910149 0.906243,0.910149 0.499997,0 0.910151,-0.410153 0.910151,-0.910149 0,-0.499997 -0.410154,-0.906244 -0.910151,-0.906244 -0.499996,0 -0.906243,0.406247 -0.906243,0.906244 z m 5.744795,80.708573 c -0.326709,0 -0.59062,0.342462 -0.59062,0.767187 l 0,6.545262 c 0,0.42473 0.263911,0.76719 0.59062,0.76719 l 1.365615,0 0.02496,26.25606 -5.529645,4.89372 c -1.942865,0.43246 -3.325723,2.15487 -3.328101,4.14528 2.2e-4,2.34857 1.904518,4.25218 4.253095,4.25154 1.934278,-0.003 3.622978,-1.31066 4.109343,-3.1828 l 6.962456,0 0.671867,-0.72187 0.07816,-2.3208 5.998895,-4.53731 3.794787,-0.002 0,0.325 c 0,0.53086 0.49265,0.95781 1.10469,0.95781 l 5.23745,0 c 0.61203,0 1.10468,-0.42695 1.10468,-0.95781 l 0,-3.98435 c 0,-0.53085 -0.49265,-0.9578 -1.10468,-0.9578 l -5.23745,0 c -0.61204,0 -1.10469,0.42695 -1.10469,0.9578 l 0,0.35625 -7.790568,0.003 -5.362466,-5.94996 -0.0094,-19.53268 1.306239,0 c 0.32671,0 0.59062,-0.34245 0.59062,-0.76718 l 0,-6.545264 c 0,-0.424725 -0.26391,-0.767187 -0.59062,-0.767187 z m -3.814036,43.302899 c 0,0.49999 0.406247,0.90624 0.906244,0.90624 0.503902,0 0.910149,-0.40625 0.910149,-0.90624 0,-0.5 -0.406247,-0.90625 -0.910149,-0.90625 -0.499997,0 -0.906244,0.40625 -0.906244,0.90625 z m 23.320166,46.51222 c -0.61204,0 -1.10469,0.42695 -1.10469,0.95781 l 0,0.0438 -8.899202,-0.0645 -0.982897,-0.50246 c -0.0098,-0.005 -0.02032,0.005 -0.03128,0.005 l 0,-0.88595 -6.293444,0 0,6.28877 6.293444,0 0,-0.94844 c 0.01096,2.8e-4 0.02024,0.005 0.03128,0.005 l 9.882099,0 0,0.0438 c 0,0.53086 0.49265,0.95781 1.10469,0.95781 l 5.23745,0 c 0.61202,0 1.10468,-0.42695 1.10468,-0.95781 l 0,-3.98435 c 0,-0.53085 -0.49266,-0.9578 -1.10468,-0.9578 z m 0,-7.19995 c -0.61204,0 -1.10469,0.42852 -1.10469,0.95937 l 0,0.0422 -4.020475,0 -5.861624,-2.2677 c -0.0104,-0.004 -0.02016,0.006 -0.03128,0.006 l 0,-1.17408 -6.293444,0 0,6.29344 6.293444,0 0,-1.23346 c 0.01104,2.8e-4 0.0208,0.002 0.03128,0.006 l 5.963087,2.26771 3.919012,0 0,0.0438 c 0,0.53086 0.49265,0.95781 1.10469,0.95781 l 5.23745,0 c 0.61202,0 1.10468,-0.42695 1.10468,-0.95781 l 0,-3.98435 c 0,-0.53085 -0.49266,-0.95937 -1.10468,-0.95937 z m 0,-7.19838 c -0.61204,0 -1.10469,0.42695 -1.10469,0.9578 l 0,0.0438 -3.919012,0 -4.004301,-4.19121 -1.958786,-0.0607 c -0.01104,-3.5e-4 -0.02016,0.006 -0.03128,0.006 l 0,-1.17564 -6.293444,0 0,6.29345 6.293444,0 0,-1.23189 c 0.01104,2.8e-4 0.02216,-1e-4 0.03128,0.006 l 1.398926,0.006 4.564161,4.24614 3.919012,0 0,0.0422 c 0,0.53085 0.49265,0.95936 1.10469,0.95936 l 5.23745,0 c 0.61202,0 1.10468,-0.42851 1.10468,-0.95936 l 0,-3.98436 c 0,-0.53084 -0.49266,-0.9578 -1.10468,-0.9578 z m 0,-7.19839 c -0.61204,0 -1.10469,0.42695 -1.10469,0.9578 l 0,0.0672 -0.61892,0 -5.679147,-6.17981 -3.867494,-0.0563 c -0.01128,-1.7e-4 -0.02032,0.005 -0.03128,0.005 l 0,-0.91406 -6.009982,0 0,6.29345 6.009982,0 0,-0.925 c 0.01096,2.8e-4 0.02224,-0.002 0.03128,0.005 l 3.091178,-0.002 5.22014,5.67176 1.854243,0 0,0.0203 c 0,0.53084 0.49265,0.9578 1.10469,0.9578 l 5.23745,0 c 0.61202,0 1.10468,-0.42696 1.10468,-0.9578 l 0,-3.98435 c 0,-0.53086 -0.49266,-0.95781 -1.10468,-0.95781 z m -15.070224,24.29292 c 0,0.50391 0.406247,0.90624 0.906244,0.90624 0.499996,0 0.906243,-0.40233 0.906243,-0.90624 0,-0.5 -0.406247,-0.90624 -0.906243,-0.90624 -0.499997,0 -0.906244,0.40624 -0.906244,0.90624 z m 0,-9.18337 c 0,0.5 0.406247,0.90625 0.906244,0.90625 0.499996,0 0.906243,-0.40625 0.906243,-0.90625 0,-0.49999 -0.406247,-0.90624 -0.906243,-0.90624 -0.499997,0 -0.906244,0.40625 -0.906244,0.90624 z m 0,-9.18337 c 0,0.5 0.406247,0.90624 0.906244,0.90624 0.499996,0 0.906243,-0.40624 0.906243,-0.90624 0,-0.5 -0.406247,-0.90624 -0.906243,-0.90624 -0.499997,0 -0.906244,0.40624 -0.906244,0.90624 z m 0,-8.89992 c 0,0.5 0.406247,0.90625 0.906244,0.90625 0.499996,0 0.906243,-0.40625 0.906243,-0.90625 0,-0.49999 -0.406247,-0.91015 -0.906243,-0.91015 -0.499997,0 -0.906244,0.41016 -0.906244,0.91015 z m 0.792963,-146.91752 2.925761,0 0,-0.511716 -1.562489,0 -0.851556,-0.851556 0,-0.207029 -0.511716,0 z m 0,-3.847629 0.511716,0 0,-0.121093 0.851556,-0.851556 1.562489,0 0,-0.511716 -2.925761,0 z m 3.574194,31.964497 c 0,0.296874 0.238279,0.539059 0.535152,0.539059 0.296873,0 0.539058,-0.242185 0.539058,-0.539059 0,-0.296872 -0.242185,-0.539058 -0.539058,-0.539058 -0.296873,0 -0.535152,0.242186 -0.535152,0.539058 z m 0,-30.784819 c 0,0.296873 0.238279,0.53906 0.535152,0.53906 0.296873,0 0.539058,-0.242187 0.539058,-0.53906 0,-0.296872 -0.242185,-0.535152 -0.539058,-0.535152 -0.296873,0 -0.535152,0.23828 -0.535152,0.535152 z m 1.632807,2.667951 3.015603,0 0,-1.570301 -0.511715,0 0,0.207029 -0.851556,0.851556 -1.652332,0 z m 0,-4.820278 1.652332,0 0.851556,0.851556 0,0.121093 0.511715,0 0,-1.484365 -3.015603,0 z m 11.09367,186.490998 c 0,0.29687 0.23828,0.53905 0.53906,0.53905 0.29688,0 0.53906,-0.24218 0.53906,-0.53905 0,-0.30078 -0.24218,-0.53906 -0.53906,-0.53906 -0.30078,0 -0.53906,0.23828 -0.53906,0.53906 z m 0,-7.20308 c 0,0.30079 0.23828,0.53906 0.53906,0.53906 0.29688,0 0.53906,-0.23827 0.53906,-0.53906 0,-0.29687 -0.24218,-0.53906 -0.53906,-0.53906 -0.30078,0 -0.53906,0.24219 -0.53906,0.53906 z m 0,-7.19916 c 0,0.29687 0.23828,0.53906 0.53906,0.53906 0.29688,0 0.53906,-0.24219 0.53906,-0.53906 0,-0.29688 -0.24218,-0.53907 -0.53906,-0.53907 -0.30078,0 -0.53906,0.24219 -0.53906,0.53907 z m 0,-7.19917 c 0,0.29687 0.23828,0.53906 0.53906,0.53906 0.29688,0 0.53906,-0.24219 0.53906,-0.53906 0,-0.29688 -0.24218,-0.53907 -0.53906,-0.53907 -0.30078,0 -0.53906,0.24219 -0.53906,0.53907 z m 0,-7.19917 c 0,0.29687 0.23828,0.53906 0.53906,0.53906 0.29688,0 0.53906,-0.24219 0.53906,-0.53906 0,-0.29688 -0.24218,-0.53906 -0.53906,-0.53906 -0.30078,0 -0.53906,0.24218 -0.53906,0.53906 z m 0,-7.19917 c 0,0.29687 0.23828,0.53906 0.53906,0.53906 0.29688,0 0.53906,-0.24219 0.53906,-0.53906 0,-0.30078 -0.24218,-0.53905 -0.53906,-0.53905 -0.30078,0 -0.53906,0.23827 -0.53906,0.53905 z m 0,-7.20308 c 0,0.30079 0.23828,0.53907 0.53906,0.53907 0.29688,0 0.53906,-0.23828 0.53906,-0.53907 0,-0.29687 -0.24218,-0.53905 -0.53906,-0.53905 -0.30078,0 -0.53906,0.24218 -0.53906,0.53905 z m 0,-7.19916 c 0,0.29687 0.23828,0.53906 0.53906,0.53906 0.29688,0 0.53906,-0.24219 0.53906,-0.53906 0,-0.29687 -0.24218,-0.53906 -0.53906,-0.53906 -0.30078,0 -0.53906,0.24219 -0.53906,0.53906 z m 0,-7.19917 c 0,0.29687 0.23828,0.53906 0.53906,0.53906 0.29688,0 0.53906,-0.24219 0.53906,-0.53906 0,-0.29687 -0.24218,-0.53906 -0.53906,-0.53906 -0.30078,0 -0.53906,0.24219 -0.53906,0.53906 z m 0,-7.19917 c 0,0.29687 0.23828,0.53906 0.53906,0.53906 0.29688,0 0.53906,-0.24219 0.53906,-0.53906 0,-0.29687 -0.24218,-0.53905 -0.53906,-0.53905 -0.30078,0 -0.53906,0.24218 -0.53906,0.53905 z m 0,-7.19916 c 0,0.29687 0.23828,0.53905 0.53906,0.53905 0.29688,0 0.53906,-0.24218 0.53906,-0.53905 0,-0.30078 -0.24218,-0.53906 -0.53906,-0.53906 -0.30078,0 -0.53906,0.23828 -0.53906,0.53906 z m 0,-7.20307 c 0,0.30077 0.23828,0.53905 0.53906,0.53905 0.29688,0 0.53906,-0.23828 0.53906,-0.53905 0,-0.29688 -0.24218,-0.53907 -0.53906,-0.53907 -0.30078,0 -0.53906,0.24219 -0.53906,0.53907 z m 0,-7.19917 c 0,0.29687 0.23828,0.53905 0.53906,0.53905 0.29688,0 0.53906,-0.24218 0.53906,-0.53905 0,-0.29688 -0.24218,-0.53907 -0.53906,-0.53907 -0.30078,0 -0.53906,0.24219 -0.53906,0.53907 z m 0,-7.19917 c 0,0.29687 0.23828,0.53905 0.53906,0.53905 0.29688,0 0.53906,-0.24218 0.53906,-0.53905 0,-0.29688 -0.24218,-0.53906 -0.53906,-0.53906 -0.30078,0 -0.53906,0.24218 -0.53906,0.53906 z m 8.07688,-55.702861 2.8867,0 0,-0.480465 -1.52733,0 -0.84765,-0.847651 0,-2.910136 -0.51172,0 z m 0,-6.51558 0.51172,0 0,-3.035134 0.84765,-0.851556 1.52733,0 0,-0.50781 -2.8867,0 z m 5.16404,6.51558 2.94529,0 0,-4.238252 -0.51172,0 0,2.910136 -0.85155,0.847651 -1.58202,0 z m 0,-10.40227 1.58202,0 0.85155,0.851556 0,3.035134 0.51172,0 0,-4.3945 -2.94529,0 z m 8.35659,116.503201 c 0,0.30079 0.24218,0.53907 0.53905,0.53907 0.29687,0 0.53906,-0.23828 0.53906,-0.53907 0,-0.29687 -0.24219,-0.53905 -0.53906,-0.53905 -0.29687,0 -0.53905,0.24218 -0.53905,0.53905 z m 0,-7.19916 c 0,0.29687 0.24218,0.53906 0.53905,0.53906 0.29687,0 0.53906,-0.24219 0.53906,-0.53906 0,-0.29687 -0.24219,-0.53906 -0.53906,-0.53906 -0.29687,0 -0.53905,0.24219 -0.53905,0.53906 z m 0,-7.19917 c 0,0.29687 0.24218,0.53906 0.53905,0.53906 0.29687,0 0.53906,-0.24219 0.53906,-0.53906 0,-0.29687 -0.24219,-0.53906 -0.53906,-0.53906 -0.29687,0 -0.53905,0.24219 -0.53905,0.53906 z m 0,-7.19917 c 0,0.29687 0.24218,0.53906 0.53905,0.53906 0.29687,0 0.53906,-0.24219 0.53906,-0.53906 0,-0.29687 -0.24219,-0.53905 -0.53906,-0.53905 -0.29687,0 -0.53905,0.24218 -0.53905,0.53905 z m 0,-7.19916 c 0,0.29687 0.24218,0.53905 0.53905,0.53905 0.29687,0 0.53906,-0.24218 0.53906,-0.53905 0,-0.30078 -0.24219,-0.53906 -0.53906,-0.53906 -0.29687,0 -0.53905,0.23828 -0.53905,0.53906 z m 0,-7.20307 c 0,0.30077 0.24218,0.53905 0.53905,0.53905 0.29687,0 0.53906,-0.23828 0.53906,-0.53905 0,-0.29688 -0.24219,-0.53907 -0.53906,-0.53907 -0.29687,0 -0.53905,0.24219 -0.53905,0.53907 z m 0,-7.19917 c 0,0.29687 0.24218,0.53905 0.53905,0.53905 0.29687,0 0.53906,-0.24218 0.53906,-0.53905 0,-0.29688 -0.24219,-0.53907 -0.53906,-0.53907 -0.29687,0 -0.53905,0.24219 -0.53905,0.53907 z m 0,-7.19917 c 0,0.29687 0.24218,0.53905 0.53905,0.53905 0.29687,0 0.53906,-0.24218 0.53906,-0.53905 0,-0.29688 -0.24219,-0.53906 -0.53906,-0.53906 -0.29687,0 -0.53905,0.24218 -0.53905,0.53906 z M 47.918406,18.732628 c -2.347966,2.24e-4 -4.25131,1.90357 -4.251534,4.251534 2.87e-4,1.406815 0.696405,2.722419 1.859362,3.514038 l 0,8.478065 c -1.320744,0.756294 -2.136534,2.160834 -2.139047,3.682787 0.0014,1.752306 1.077747,3.324263 2.710919,3.959347 l 3.112478,7.210887 0,18.062372 -7.095264,6.159333 -10.017118,0 0,-0.371872 c 0,-0.530859 -0.492654,-0.959369 -1.104679,-0.959369 l -5.237465,0 c -0.612024,0 -1.104679,0.42851 -1.104679,0.959369 l 0,3.984346 c 0,0.530859 0.492655,0.957807 1.104679,0.957807 l 5.237465,0 c 0.612025,0 1.104679,-0.426948 1.104679,-0.957807 l 0,-0.34531 13.996779,0 7.517135,-6.185895 0,-21.956095 -3.31404,-7.199949 c 1.006444,-0.806946 1.592128,-2.027166 1.592176,-3.317164 -0.0014,-1.450064 -0.741799,-2.799411 -1.964048,-3.579663 l 0,-8.351504 c 1.380204,-0.739559 2.242228,-2.177866 2.243734,-3.743723 -2.24e-4,-2.347964 -1.903568,-4.25131 -4.251532,-4.251534 z M 36.216529,4.4803915 l -7.454241,8.0835305 0.02031,6.960889 -5.221839,7.23745 -7.295262,0.05469 -9.4974611,9.871806 0.026562,28.489515 1.171867,1.311579 2.2865743,-0.0047 0,0.37682 c 0,0.530858 0.492654,0.957806 1.10468,0.957806 l 5.237464,0 c 0.612025,0 1.104679,-0.426948 1.104679,-0.957806 l 0,-0.362757 1.953111,0.02187 0,2.006495 1.372518,1.58723 3.625885,0 0,0.347131 c 0,0.530857 0.492655,0.957806 1.104679,0.957806 l 5.237465,0 c 0.612026,0 1.104679,-0.426949 1.104679,-0.957806 l 0,-3.984348 c 0,-0.530857 -0.492653,-0.957805 -1.104679,-0.957805 l -5.237465,0 c -0.612024,0 -1.104679,0.426948 -1.104679,0.957805 l 0,0.37057 -2.26743,0 0.01875,-2.000245 -1.554418,-1.648168 -3.148416,0 0,-0.322131 c 0,-0.530857 -0.492654,-0.957805 -1.10468,-0.957805 l -5.237463,0 c -0.612027,0 -1.10468,0.426948 -1.10468,0.957805 l 0,0.340881 -1.0140566,0 0.010936,-24.3079 8.2952557,-8.881187 8.893687,0.04687 7.090576,-9.634308 0,-7.046825 4.881217,-5.7868073 34.352886,0 3.232791,2.8930773 0,2.621857 c -1.193588,0.767383 -1.957701,2.091888 -1.959363,3.562475 -6.39e-4,2.349184 1.903912,4.253734 4.253096,4.253095 2.348576,-2.25e-4 4.25217,-1.904523 4.25153,-4.253095 -0.0024,-1.51855 -0.81485,-2.875358 -2.065609,-3.628101 l 0,-4.5874661 -4.267276,-3.8226416 -0.159374,0.4200511 0,-0.00782 -0.01562,0 -0.01094,-0.00938 0.0031,-0.5575452 -39.806243,-1e-7 z m 87.959151,96.3592085 5.23669,0 c 0.61202,0 1.10474,0.42737 1.10474,0.95823 l 0,3.98428 c 0,0.53086 -0.49272,0.95823 -1.10474,0.95823 l -5.23669,0 c -0.61202,0 -1.10474,-0.42737 -1.10474,-0.95823 l 0,-3.98428 c 0,-0.53086 0.49272,-0.95823 1.10474,-0.95823 z m 0,7.20112 5.23669,0 c 0.61202,0 1.10474,0.42737 1.10474,0.95823 l 0,3.98428 c 0,0.53086 -0.49272,0.95823 -1.10474,0.95823 l -5.23669,0 c -0.61202,0 -1.10474,-0.42737 -1.10474,-0.95823 l 0,-3.98428 c 0,-0.53086 0.49272,-0.95823 1.10474,-0.95823 z m 0,7.19917 5.23669,0 c 0.61202,0 1.10474,0.42736 1.10474,0.95823 l 0,3.98428 c 0,0.53086 -0.49272,0.95823 -1.10474,0.95823 l -5.23669,0 c -0.61202,0 -1.10474,-0.42737 -1.10474,-0.95823 l 0,-3.98428 c 0,-0.53087 0.49272,-0.95823 1.10474,-0.95823 z m 0,7.19916 5.23669,0 c 0.61202,0 1.10474,0.42737 1.10474,0.95823 l 0,3.98428 c 0,0.53086 -0.49272,0.95822 -1.10474,0.95822 l -5.23669,0 c -0.61202,0 -1.10474,-0.42736 -1.10474,-0.95822 l 0,-3.98428 c 0,-0.53086 0.49272,-0.95823 1.10474,-0.95823 z m 0,7.19917 5.23669,0 c 0.61202,0 1.10474,0.42736 1.10474,0.95823 l 0,3.98428 c 0,0.53086 -0.49272,0.95822 -1.10474,0.95822 l -5.23669,0 c -0.61202,0 -1.10474,-0.42736 -1.10474,-0.95822 l 0,-3.98428 c 0,-0.53087 0.49272,-0.95823 1.10474,-0.95823 z m -21.54314,28.77129 5.23669,0 c 0.61202,0 1.10474,0.42737 1.10474,0.95824 l 0,3.98428 c 0,0.53085 -0.49272,0.95822 -1.10474,0.95822 l -5.23669,0 c -0.61203,0 -1.10475,-0.42737 -1.10475,-0.95822 l 0,-3.98428 c 0,-0.53087 0.49272,-0.95824 1.10475,-0.95824 z m 0,-57.56991 5.23669,0 c 0.61202,0 1.10474,0.42737 1.10474,0.95823 l 0,3.98428 c 0,0.53086 -0.49272,0.95823 -1.10474,0.95823 l -5.23669,0 c -0.61203,0 -1.10475,-0.42737 -1.10475,-0.95823 l 0,-3.98428 c 0,-0.53086 0.49272,-0.95823 1.10475,-0.95823 z m 0,7.20112 5.23669,0 c 0.61202,0 1.10474,0.42737 1.10474,0.95823 l 0,3.98428 c 0,0.53086 -0.49272,0.95823 -1.10474,0.95823 l -5.23669,0 c -0.61203,0 -1.10475,-0.42737 -1.10475,-0.95823 l 0,-3.98428 c 0,-0.53086 0.49272,-0.95823 1.10475,-0.95823 z m 0,7.19917 5.23669,0 c 0.61202,0 1.10474,0.42736 1.10474,0.95823 l 0,3.98428 c 0,0.53086 -0.49272,0.95823 -1.10474,0.95823 l -5.23669,0 c -0.61203,0 -1.10475,-0.42737 -1.10475,-0.95823 l 0,-3.98428 c 0,-0.53087 0.49272,-0.95823 1.10475,-0.95823 z m 21.54315,43.17869 5.2367,0 c 0.61202,0 1.10474,0.42737 1.10474,0.95823 l 0,3.98428 c 0,0.53085 -0.49272,0.95823 -1.10474,0.95823 l -5.2367,0 c -0.61202,0 -1.10474,-0.42738 -1.10474,-0.95823 l 0,-3.98428 c 0,-0.53086 0.49272,-0.95823 1.10474,-0.95823 z m 0,7.19916 5.2367,0 c 0.61202,0 1.10474,0.42738 1.10474,0.95823 l 0,3.98429 c 0,0.53085 -0.49272,0.95822 -1.10474,0.95822 l -5.2367,0 c -0.61202,0 -1.10474,-0.42737 -1.10474,-0.95822 l 0,-3.98429 c 0,-0.53085 0.49272,-0.95823 1.10474,-0.95823 z m -98.419237,-64.09859 5.236693,0 c 0.612026,0 1.104739,0.42737 1.104739,0.95823 l 0,3.98428 c 0,0.53086 -0.492713,0.95823 -1.104739,0.95823 l -5.236693,0 c -0.612025,0 -1.104739,-0.42737 -1.104739,-0.95823 l 0,-3.98428 c 0,-0.53086 0.492714,-0.95823 1.104739,-0.95823 z m -14.398335,-17.999873 5.236692,0 c 0.612026,0 1.10474,0.42737 1.10474,0.958228 l 0,3.984283 c 0,0.530858 -0.492714,0.958228 -1.10474,0.958228 l -5.236692,0 c -0.612026,0 -1.10474,-0.42737 -1.10474,-0.958228 l 0,-3.984283 c 0,-0.530858 0.492714,-0.958228 1.10474,-0.958228 z m 0,14.400289 5.236692,0 c 0.612026,0 1.10474,0.42737 1.10474,0.958229 l 0,3.984275 c 0,0.53086 -0.492714,0.95824 -1.10474,0.95824 l -5.236692,0 c -0.612026,0 -1.10474,-0.42738 -1.10474,-0.95824 l 0,-3.984275 c 0,-0.530859 0.492714,-0.958229 1.10474,-0.958229 z M 130.03225,9.5184264 c 0,2.3482816 -1.90365,4.2519386 -4.25194,4.2519376 -2.34828,10e-7 -4.25194,-1.903656 -4.25194,-4.2519376 0,-2.3482811 1.90366,-4.251939 4.25194,-4.2519384 2.34829,-6e-7 4.25194,1.9036573 4.25194,4.2519384 z M 75.627129,90.63255 c -0.296868,0 -0.539056,0.242178 -0.539056,0.539056 0,0.296868 0.242188,0.539056 0.539056,0.539056 0.296878,0 0.539056,-0.242188 0.539056,-0.539056 0,-0.296878 -0.242178,-0.539056 -0.539056,-0.539056 z m 10.771582,10.26141 c -0.296868,0 -0.539056,0.24218 -0.539056,0.53905 0,0.29687 0.242188,0.53906 0.539056,0.53906 0.296878,0 0.539056,-0.24219 0.539056,-0.53906 0,-0.29687 -0.242178,-0.53905 -0.539056,-0.53905 z m -21.501082,39.80195 c 0,0.49999 0.406247,0.90624 0.906243,0.90624 0.503903,0 0.91015,-0.40625 0.91015,-0.90624 0,-0.5 -0.406247,-0.90625 -0.91015,-0.90625 -0.499996,0 -0.906243,0.40625 -0.906243,0.90625 z M 1.1046676,-0.11411358 c -0.61202402,0 -1.104679807033,0.42694887 -1.104679807033,0.95780579 l 0,212.19850779 c 0,0.53086 0.492655787033,0.95781 1.104679807033,0.95781 l 134.7068724,0 c 0.61208,0 1.10468,-0.42695 1.10468,-0.95781 l 0,-212.19850779 c 0,-0.53085692 -0.4926,-0.95780579 -1.10468,-0.95780579 z m 32.6357104,2.82199048 49.551215,0 2.114049,1.7062381 0,14.648123 -2.551163,3.247323 -9.182857,0 -2.834626,-3.416054 0,-7.10458 -2.512483,-2.6374807 -26.501378,0 -2.385921,3.0140417 0,4.898403 12.363048,0 2.835284,3.401551 0,8.781176 5.023403,0 4.143721,-3.87966 43.30282,0 4.5359,4.032784 0,19.915485 12.06399,0 0,16.085824 -13.59678,0 0,5.851128 12.32479,11.57375 0,14.198341 10.59849,0 0,55.30118 -2.51405,0 0,-0.22813 c 0,-0.53087 -0.4942,-0.95781 -1.10624,-0.95781 l -5.23591,0 c -0.61201,0 -1.10468,0.42694 -1.10468,0.95781 l 0,3.98434 c 0,0.53087 0.49267,0.95781 1.10468,0.95781 l 5.23591,0 c 0.61204,0 1.10624,-0.42694 1.10624,-0.95781 l 0,-0.0578 2.51405,0 0,48.75122 -31.80134,0 -3.398416,-2.18437 -29.616986,0 0,4.61248 -26.702939,0 0,-10.92492 15.293644,0 0,-3.39842 25.004513,0 0,-33.9857 -10.438989,0.24218 -2.670294,2.67029 0,7.52495 -7.768696,7.28276 -6.068708,0 0,4.37028 -8.98275,10.92493 -19.177991,0 0,12.86554 -12.137417,0 0,-12.86554 -8.1744259,0 0,-12.38429 3.1885234,0 0,1.20623 7.4624485,0 0,-1.20623 24.545141,0 0.02969,-11.47843 3.336126,-2.56156 10.198155,-0.0318 3.204665,-3.52341 -0.09062,-4.19997 7.518698,-7.76088 27.970118,0.13281 7.773389,-1.50624 0,0.36562 c 0,0.53087 0.49265,0.95781 1.10469,0.95781 l 5.23745,0 c 0.61202,0 1.10468,-0.42694 1.10468,-0.95781 l 0,-3.98434 c 0,-0.53087 -0.49266,-0.95938 -1.10468,-0.95938 l -5.23745,0 c -0.61204,0 -1.10469,0.42851 -1.10469,0.95938 l 0,0.30468 -8.876509,1.77655 -28.090427,0.021 c -5.271366,-0.42422 -8.105566,-6.42223 -4.656218,-10.53494 l 10.045243,-10.35462 0.294893,-29.54215 -1.392394,-1.434394 0.0755,-12.033065 -3.168593,-3.533563 -14.753023,11.135866 -0.04062,13.099646 2.214048,1.94217 0.02031,18.12488 -1.848424,1.88905 -11.242109,-0.12969 -1.542178,-2.11404 -13.971778,-0.175 -4.880047,4.39371 0.162499,47.93873 -2.835524,0 0,-1.20624 -7.4624485,0 0,1.20624 -3.1885234,0 0,-57.15585 10.3587869,-9.46869 -0.135937,-2.21872 -8.5311906,0 -2.5972385,-3.54217 0,-20.74048 2.281234,-1.640612 2.4863021,0 0,0.276558 c 0,0.53086 0.492653,0.959369 1.10468,0.959369 l 5.237463,0 c 0.612026,0 1.10468,-0.428509 1.10468,-0.959369 l 0,-0.276558 1.154679,0 3.178103,3.745286 2.618732,0 0,0.131247 c 0,0.53086 0.492655,0.957809 1.104679,0.957809 l 5.237465,0 c 0.612025,0 1.104679,-0.426949 1.104679,-0.957809 l 0,-3.984348 c 0,-0.530853 -0.492654,-0.957804 -1.104679,-0.957804 l -5.237465,0 c -0.612024,0 -1.104679,0.426951 -1.104679,0.957804 l 0,0.429685 -1.101555,0 -3.415601,-3.699972 -2.434358,0 0,-0.328123 c 0,-0.530858 -0.492654,-0.959368 -1.10468,-0.959368 l -5.237463,0 c -0.612027,0 -1.10468,0.42851 -1.10468,0.959368 l 0,0.328123 -4.8749666,0 -3.8693751,-3.173415 0,-49.998087 10.2271437,-10.920236 12.138719,0 9.865815,-10.8076011 z m 24.238895,84.2711511 1.457801,0 0,0.510932 -0.09375,0 -0.851557,0.848434 0,1.651548 -0.512496,0 z m 3.734348,0 1.598427,0 0,3.010914 -0.512496,0 0,-1.651548 -0.851557,-0.848434 -0.234374,0 z m -1.070304,3.570286 c 0.300777,0 0.539058,0.242183 0.539058,0.539061 0,0.296854 -0.238281,0.539052 -0.539058,0.539052 -0.296875,0 -0.534371,-0.242198 -0.534371,-0.539052 0,-0.296878 0.237496,-0.539061 0.534371,-0.539061 z m -2.664044,1.72186 0.512496,0 0,1.567182 0.851557,0.851554 0.09375,0 0,0.510933 -1.457801,0 z m 4.820279,0 0.512496,0 0,2.929669 -1.598427,0 0,-0.510933 0.234374,0 0.851557,-0.851554 z m 0.484371,4.94059 1.539052,0 0,0.512501 -0.179686,0 -0.851557,0.846866 0,1.684359 -0.507809,0 z m 3.815598,0 1.512491,0 0,3.043726 -0.512498,0 0,-1.684359 -0.851556,-0.846866 -0.148437,0 z m -1.151554,3.570286 c 0.296869,0 0.539059,0.24219 0.539059,0.53907 0,0.29686 -0.24219,0.53905 -0.539059,0.53905 -0.296872,0 -0.539059,-0.24219 -0.539059,-0.53905 0,-0.29688 0.242187,-0.53907 0.539059,-0.53907 z m -2.664044,1.74999 0.507809,0 0,1.53906 0.851557,0.85155 0.179686,0 0,0.5125 -1.539052,0 z m 4.815591,0 0.512498,0 0,2.90311 -1.512491,0 0,-0.5125 0.148437,0 0.851556,-0.85155 z m -12.001478,7.37963 2.760919,0 0,0.51094 -1.429679,0 -0.851556,0.85156 0,2.86404 -0.479684,0 z m 5.042151,0 3.035917,0 0,4.22654 -0.512496,0 0,-2.86404 -0.846869,-0.85156 -1.676552,0 z m -5.042151,6.50778 0.479684,0 0,3.07341 0.851556,0.85156 1.429679,0 0,0.5078 -2.760919,0 z m 7.565572,0 0.512496,0 0,4.43277 -3.035917,0 0,-0.5078 1.676552,0 0.846869,-0.85156 z"
     inkscape:connector-curvature="0" />
</svg>
